<svg width="774" height="1182" viewBox="0 0 774 1182" fill="none" xmlns="http://www.w3.org/2000/svg">
<ellipse cx="396.5" cy="591" rx="377.5" ry="591" fill="url(#paint0_radial_115_231)"/>
<g filter="url(#filter0_d_115_231)">
<path d="M113.504 940.259L156.86 918.58V976.273L112.454 999L113.504 940.259Z" fill="#B4A6E6" fill-opacity="0.63" shape-rendering="crispEdges"/>
<path d="M67 918.58L113.504 940.259L112.454 999L67 976.273L67 918.58Z" fill="#B4A6E6" fill-opacity="0.63" shape-rendering="crispEdges"/>
<path d="M113.504 899L156.86 918.58L113.504 940.259L67 918.58L113.504 899Z" fill="#B4A6E6" fill-opacity="0.63" shape-rendering="crispEdges"/>
<path d="M114.514 995.699L115.482 941.506L154.86 921.816V975.049L114.514 995.699ZM69 975.037V921.719L111.481 941.522L110.511 995.792L69 975.037ZM152.204 918.672L113.473 938.038L71.9331 918.673L113.475 901.182L152.204 918.672Z" stroke="black" stroke-opacity="0.8" stroke-width="4" shape-rendering="crispEdges"/>
</g>
<path d="M51.1104 1162.36V1168H30.4082V1162.36H51.1104ZM32.3906 1126.77V1168H25.2822V1126.77H32.3906ZM69.4336 1168.57C67.168 1168.57 65.1195 1168.2 63.2881 1167.46C61.4756 1166.71 59.9274 1165.66 58.6436 1164.32C57.3786 1162.98 56.4062 1161.4 55.7266 1159.59C55.0469 1157.78 54.707 1155.82 54.707 1153.73V1152.59C54.707 1150.2 55.0563 1148.02 55.7549 1146.08C56.4535 1144.14 57.4258 1142.47 58.6719 1141.1C59.918 1139.7 61.3906 1138.63 63.0898 1137.9C64.7891 1137.16 66.6299 1136.79 68.6123 1136.79C70.8024 1136.79 72.7188 1137.16 74.3613 1137.9C76.0039 1138.63 77.3633 1139.67 78.4395 1141.01C79.5345 1142.33 80.3464 1143.91 80.875 1145.74C81.4225 1147.57 81.6963 1149.59 81.6963 1151.8V1154.72H58.0205V1149.82H74.9561V1149.28C74.9183 1148.05 74.6729 1146.9 74.2197 1145.83C73.7855 1144.75 73.1152 1143.88 72.209 1143.22C71.3027 1142.56 70.0944 1142.23 68.584 1142.23C67.4512 1142.23 66.4411 1142.47 65.5537 1142.96C64.6852 1143.44 63.9583 1144.13 63.373 1145.03C62.7878 1145.94 62.3346 1147.03 62.0137 1148.32C61.7116 1149.58 61.5605 1151.01 61.5605 1152.59V1153.73C61.5605 1155.07 61.7399 1156.31 62.0986 1157.46C62.4762 1158.6 63.0238 1159.59 63.7412 1160.44C64.4587 1161.29 65.3271 1161.96 66.3467 1162.45C67.3662 1162.92 68.5273 1163.16 69.8301 1163.16C71.4727 1163.16 72.9359 1162.83 74.2197 1162.17C75.5036 1161.51 76.6175 1160.57 77.5615 1159.36L81.1582 1162.85C80.4974 1163.81 79.6383 1164.73 78.5811 1165.62C77.5238 1166.49 76.2305 1167.2 74.7012 1167.75C73.1908 1168.29 71.4349 1168.57 69.4336 1168.57ZM104.211 1159.7C104.211 1159.02 104.041 1158.41 103.701 1157.86C103.361 1157.29 102.71 1156.79 101.747 1156.33C100.803 1155.88 99.4059 1155.46 97.5557 1155.09C95.932 1154.73 94.4404 1154.3 93.0811 1153.81C91.7406 1153.3 90.5889 1152.69 89.626 1151.97C88.6631 1151.25 87.9173 1150.4 87.3887 1149.42C86.86 1148.44 86.5957 1147.31 86.5957 1146.02C86.5957 1144.78 86.8695 1143.6 87.417 1142.48C87.9645 1141.37 88.748 1140.39 89.7676 1139.54C90.7871 1138.69 92.0238 1138.02 93.4775 1137.53C94.9502 1137.04 96.5928 1136.79 98.4053 1136.79C100.973 1136.79 103.173 1137.23 105.004 1138.09C106.854 1138.94 108.27 1140.1 109.252 1141.58C110.234 1143.03 110.725 1144.67 110.725 1146.5H103.899C103.899 1145.69 103.692 1144.94 103.276 1144.24C102.88 1143.52 102.276 1142.95 101.464 1142.51C100.652 1142.06 99.6325 1141.83 98.4053 1141.83C97.2347 1141.83 96.2624 1142.02 95.4883 1142.4C94.7331 1142.76 94.1667 1143.23 93.7891 1143.81C93.4303 1144.4 93.251 1145.04 93.251 1145.74C93.251 1146.25 93.3454 1146.71 93.5342 1147.13C93.7419 1147.52 94.0817 1147.89 94.5537 1148.23C95.0257 1148.55 95.6676 1148.86 96.4795 1149.14C97.3102 1149.42 98.3486 1149.7 99.5947 1149.96C101.936 1150.45 103.947 1151.08 105.627 1151.86C107.326 1152.61 108.629 1153.59 109.535 1154.8C110.441 1155.99 110.895 1157.5 110.895 1159.33C110.895 1160.69 110.602 1161.94 110.017 1163.07C109.45 1164.19 108.619 1165.16 107.524 1165.99C106.429 1166.8 105.117 1167.43 103.588 1167.89C102.077 1168.34 100.378 1168.57 98.4902 1168.57C95.7148 1168.57 93.3643 1168.08 91.4385 1167.09C89.5127 1166.09 88.0495 1164.82 87.0488 1163.27C86.0671 1161.7 85.5762 1160.08 85.5762 1158.4H92.1748C92.2503 1159.66 92.5996 1160.67 93.2227 1161.43C93.8646 1162.17 94.6576 1162.7 95.6016 1163.04C96.5645 1163.36 97.5557 1163.53 98.5752 1163.53C99.8024 1163.53 100.831 1163.36 101.662 1163.04C102.493 1162.7 103.125 1162.25 103.56 1161.68C103.994 1161.1 104.211 1160.44 104.211 1159.7ZM134.061 1159.7C134.061 1159.02 133.891 1158.41 133.551 1157.86C133.211 1157.29 132.56 1156.79 131.597 1156.33C130.653 1155.88 129.256 1155.46 127.405 1155.09C125.782 1154.73 124.29 1154.3 122.931 1153.81C121.59 1153.3 120.438 1152.69 119.476 1151.97C118.513 1151.25 117.767 1150.4 117.238 1149.42C116.71 1148.44 116.445 1147.31 116.445 1146.02C116.445 1144.78 116.719 1143.6 117.267 1142.48C117.814 1141.37 118.598 1140.39 119.617 1139.54C120.637 1138.69 121.873 1138.02 123.327 1137.53C124.8 1137.04 126.442 1136.79 128.255 1136.79C130.823 1136.79 133.022 1137.23 134.854 1138.09C136.704 1138.94 138.12 1140.1 139.102 1141.58C140.083 1143.03 140.574 1144.67 140.574 1146.5H133.749C133.749 1145.69 133.541 1144.94 133.126 1144.24C132.729 1143.52 132.125 1142.95 131.313 1142.51C130.502 1142.06 129.482 1141.83 128.255 1141.83C127.084 1141.83 126.112 1142.02 125.338 1142.4C124.583 1142.76 124.016 1143.23 123.639 1143.81C123.28 1144.4 123.101 1145.04 123.101 1145.74C123.101 1146.25 123.195 1146.71 123.384 1147.13C123.591 1147.52 123.931 1147.89 124.403 1148.23C124.875 1148.55 125.517 1148.86 126.329 1149.14C127.16 1149.42 128.198 1149.7 129.444 1149.96C131.785 1150.45 133.796 1151.08 135.477 1151.86C137.176 1152.61 138.479 1153.59 139.385 1154.8C140.291 1155.99 140.744 1157.5 140.744 1159.33C140.744 1160.69 140.451 1161.94 139.866 1163.07C139.3 1164.19 138.469 1165.16 137.374 1165.99C136.279 1166.8 134.967 1167.43 133.438 1167.89C131.927 1168.34 130.228 1168.57 128.34 1168.57C125.564 1168.57 123.214 1168.08 121.288 1167.09C119.362 1166.09 117.899 1164.82 116.898 1163.27C115.917 1161.7 115.426 1160.08 115.426 1158.4H122.024C122.1 1159.66 122.449 1160.67 123.072 1161.43C123.714 1162.17 124.507 1162.7 125.451 1163.04C126.414 1163.36 127.405 1163.53 128.425 1163.53C129.652 1163.53 130.681 1163.36 131.512 1163.04C132.342 1162.7 132.975 1162.25 133.409 1161.68C133.843 1161.1 134.061 1160.44 134.061 1159.7ZM175.21 1137.36V1142.34H157.935V1137.36H175.21ZM162.919 1129.85H169.744V1159.53C169.744 1160.48 169.876 1161.2 170.141 1161.71C170.424 1162.2 170.811 1162.53 171.302 1162.7C171.793 1162.87 172.368 1162.96 173.029 1162.96C173.501 1162.96 173.954 1162.93 174.389 1162.87C174.823 1162.82 175.172 1162.76 175.437 1162.7L175.465 1167.92C174.898 1168.08 174.238 1168.24 173.482 1168.37C172.746 1168.5 171.896 1168.57 170.934 1168.57C169.367 1168.57 167.979 1168.29 166.771 1167.75C165.562 1167.18 164.618 1166.26 163.938 1165C163.259 1163.73 162.919 1162.05 162.919 1159.96V1129.85ZM187.218 1124.5V1168H180.421V1124.5H187.218ZM186.028 1151.55L183.819 1151.52C183.838 1149.4 184.131 1147.45 184.697 1145.66C185.283 1143.86 186.094 1142.3 187.133 1140.98C188.19 1139.64 189.455 1138.61 190.928 1137.9C192.4 1137.16 194.034 1136.79 195.827 1136.79C197.338 1136.79 198.697 1137 199.905 1137.41C201.132 1137.83 202.19 1138.5 203.077 1139.42C203.965 1140.33 204.635 1141.52 205.088 1142.99C205.56 1144.45 205.796 1146.22 205.796 1148.32V1168H198.942V1148.26C198.942 1146.79 198.725 1145.62 198.291 1144.75C197.876 1143.88 197.262 1143.26 196.45 1142.88C195.638 1142.48 194.647 1142.29 193.477 1142.29C192.249 1142.29 191.164 1142.53 190.22 1143.02C189.295 1143.51 188.521 1144.18 187.897 1145.03C187.274 1145.88 186.802 1146.86 186.481 1147.98C186.179 1149.09 186.028 1150.28 186.028 1151.55ZM229.981 1161.85V1147.24C229.981 1146.15 229.783 1145.2 229.387 1144.41C228.99 1143.62 228.386 1143 227.574 1142.57C226.781 1142.13 225.781 1141.92 224.572 1141.92C223.458 1141.92 222.495 1142.11 221.684 1142.48C220.872 1142.86 220.239 1143.37 219.786 1144.01C219.333 1144.65 219.106 1145.38 219.106 1146.19H212.31C212.31 1144.99 212.602 1143.81 213.188 1142.68C213.773 1141.55 214.622 1140.54 215.736 1139.65C216.85 1138.76 218.181 1138.07 219.729 1137.56C221.278 1137.05 223.015 1136.79 224.94 1136.79C227.244 1136.79 229.283 1137.18 231.058 1137.95C232.851 1138.73 234.258 1139.9 235.277 1141.46C236.316 1143.01 236.835 1144.96 236.835 1147.3V1160.92C236.835 1162.32 236.929 1163.57 237.118 1164.69C237.326 1165.78 237.618 1166.74 237.996 1167.55V1168H231.001C230.68 1167.26 230.425 1166.33 230.236 1165.2C230.066 1164.04 229.981 1162.93 229.981 1161.85ZM230.973 1149.37L231.029 1153.58H226.13C224.865 1153.58 223.751 1153.71 222.788 1153.95C221.825 1154.18 221.023 1154.52 220.381 1154.97C219.739 1155.43 219.257 1155.97 218.937 1156.62C218.616 1157.26 218.455 1157.98 218.455 1158.8C218.455 1159.61 218.644 1160.35 219.021 1161.03C219.399 1161.69 219.947 1162.21 220.664 1162.59C221.4 1162.97 222.288 1163.16 223.326 1163.16C224.723 1163.16 225.941 1162.87 226.979 1162.31C228.037 1161.72 228.868 1161.01 229.472 1160.18C230.076 1159.33 230.397 1158.53 230.435 1157.78L232.644 1160.81C232.417 1161.58 232.03 1162.41 231.482 1163.3C230.935 1164.19 230.217 1165.04 229.33 1165.85C228.462 1166.64 227.414 1167.29 226.187 1167.8C224.978 1168.31 223.581 1168.57 221.995 1168.57C219.994 1168.57 218.21 1168.17 216.643 1167.38C215.076 1166.57 213.848 1165.48 212.961 1164.12C212.074 1162.74 211.63 1161.18 211.63 1159.45C211.63 1157.82 211.932 1156.39 212.536 1155.14C213.159 1153.88 214.065 1152.82 215.255 1151.97C216.463 1151.12 217.936 1150.48 219.673 1150.04C221.41 1149.59 223.392 1149.37 225.62 1149.37H230.973ZM250.74 1143.9V1168H243.915V1137.36H250.344L250.74 1143.9ZM249.522 1151.55L247.313 1151.52C247.332 1149.35 247.634 1147.35 248.22 1145.54C248.824 1143.73 249.655 1142.17 250.712 1140.87C251.788 1139.57 253.072 1138.57 254.563 1137.87C256.055 1137.15 257.716 1136.79 259.548 1136.79C261.021 1136.79 262.352 1137 263.541 1137.41C264.749 1137.81 265.778 1138.46 266.628 1139.37C267.496 1140.27 268.157 1141.45 268.61 1142.91C269.063 1144.34 269.29 1146.11 269.29 1148.2V1168H262.437V1148.18C262.437 1146.7 262.219 1145.54 261.785 1144.69C261.37 1143.82 260.756 1143.21 259.944 1142.85C259.151 1142.47 258.16 1142.29 256.971 1142.29C255.8 1142.29 254.752 1142.53 253.827 1143.02C252.902 1143.51 252.118 1144.18 251.477 1145.03C250.854 1145.88 250.372 1146.86 250.032 1147.98C249.692 1149.09 249.522 1150.28 249.522 1151.55ZM318.029 1126.77V1131.16L302.085 1168H293.476L309.42 1133.14H288.888V1126.77H318.029ZM351.079 1143.76V1150.89C351.079 1153.99 350.749 1156.66 350.088 1158.91C349.427 1161.14 348.474 1162.97 347.228 1164.4C346 1165.82 344.537 1166.87 342.838 1167.55C341.139 1168.23 339.251 1168.57 337.174 1168.57C335.512 1168.57 333.964 1168.36 332.529 1167.94C331.094 1167.51 329.801 1166.84 328.649 1165.93C327.517 1165.03 326.535 1163.88 325.704 1162.51C324.892 1161.11 324.269 1159.45 323.835 1157.52C323.401 1155.6 323.184 1153.39 323.184 1150.89V1143.76C323.184 1140.66 323.514 1138.01 324.175 1135.8C324.854 1133.57 325.808 1131.75 327.035 1130.33C328.281 1128.92 329.754 1127.88 331.453 1127.22C333.152 1126.54 335.04 1126.2 337.117 1126.2C338.779 1126.2 340.317 1126.42 341.733 1126.85C343.168 1127.27 344.462 1127.92 345.613 1128.8C346.765 1129.69 347.747 1130.83 348.559 1132.23C349.37 1133.61 349.993 1135.26 350.428 1137.19C350.862 1139.09 351.079 1141.28 351.079 1143.76ZM342.895 1151.97V1142.65C342.895 1141.16 342.81 1139.86 342.64 1138.75C342.489 1137.63 342.253 1136.69 341.932 1135.91C341.611 1135.12 341.214 1134.48 340.742 1133.99C340.27 1133.5 339.732 1133.14 339.128 1132.91C338.524 1132.68 337.854 1132.57 337.117 1132.57C336.192 1132.57 335.371 1132.75 334.653 1133.11C333.955 1133.47 333.36 1134.04 332.869 1134.84C332.378 1135.61 332.001 1136.65 331.736 1137.95C331.491 1139.24 331.368 1140.8 331.368 1142.65V1151.97C331.368 1153.46 331.444 1154.77 331.595 1155.91C331.765 1157.04 332.01 1158.01 332.331 1158.82C332.671 1159.62 333.067 1160.27 333.521 1160.78C333.993 1161.27 334.531 1161.63 335.135 1161.85C335.758 1162.08 336.438 1162.19 337.174 1162.19C338.08 1162.19 338.882 1162.01 339.581 1161.66C340.299 1161.28 340.903 1160.69 341.394 1159.9C341.903 1159.09 342.281 1158.03 342.526 1156.73C342.772 1155.43 342.895 1153.84 342.895 1151.97ZM394.126 1157.38C394.126 1156.53 393.994 1155.78 393.729 1155.11C393.484 1154.45 393.04 1153.85 392.398 1153.3C391.757 1152.75 390.85 1152.23 389.68 1151.72C388.528 1151.19 387.055 1150.65 385.262 1150.1C383.298 1149.5 381.486 1148.83 379.824 1148.09C378.182 1147.34 376.747 1146.47 375.52 1145.49C374.292 1144.48 373.339 1143.34 372.659 1142.06C371.979 1140.76 371.64 1139.25 371.64 1137.56C371.64 1135.88 371.989 1134.35 372.688 1132.97C373.405 1131.59 374.415 1130.4 375.718 1129.4C377.039 1128.38 378.597 1127.6 380.391 1127.05C382.184 1126.48 384.167 1126.2 386.338 1126.2C389.396 1126.2 392.03 1126.77 394.239 1127.9C396.467 1129.03 398.176 1130.55 399.365 1132.46C400.574 1134.36 401.178 1136.47 401.178 1138.77H394.126C394.126 1137.41 393.833 1136.22 393.248 1135.18C392.682 1134.12 391.813 1133.29 390.643 1132.68C389.491 1132.08 388.028 1131.78 386.253 1131.78C384.573 1131.78 383.175 1132.03 382.062 1132.54C380.948 1133.05 380.117 1133.74 379.569 1134.61C379.022 1135.48 378.748 1136.46 378.748 1137.56C378.748 1138.33 378.927 1139.04 379.286 1139.68C379.645 1140.3 380.192 1140.89 380.929 1141.44C381.665 1141.96 382.59 1142.46 383.704 1142.94C384.818 1143.41 386.13 1143.86 387.641 1144.3C389.925 1144.98 391.917 1145.73 393.616 1146.56C395.315 1147.37 396.731 1148.3 397.864 1149.34C398.997 1150.38 399.847 1151.56 400.413 1152.88C400.979 1154.18 401.263 1155.66 401.263 1157.32C401.263 1159.06 400.913 1160.63 400.215 1162.02C399.516 1163.4 398.516 1164.58 397.213 1165.56C395.929 1166.53 394.381 1167.27 392.568 1167.8C390.775 1168.31 388.773 1168.57 386.564 1168.57C384.582 1168.57 382.628 1168.3 380.702 1167.77C378.795 1167.24 377.058 1166.44 375.491 1165.37C373.924 1164.27 372.678 1162.91 371.753 1161.29C370.828 1159.65 370.365 1157.73 370.365 1155.54H377.474C377.474 1156.88 377.7 1158.02 378.153 1158.97C378.625 1159.91 379.277 1160.68 380.107 1161.29C380.938 1161.87 381.901 1162.31 382.996 1162.59C384.11 1162.87 385.299 1163.02 386.564 1163.02C388.226 1163.02 389.614 1162.78 390.728 1162.31C391.86 1161.84 392.71 1161.17 393.276 1160.33C393.843 1159.48 394.126 1158.49 394.126 1157.38ZM414.177 1137.36V1168H407.323V1137.36H414.177ZM406.87 1129.31C406.87 1128.28 407.21 1127.42 407.89 1126.74C408.588 1126.04 409.551 1125.69 410.778 1125.69C411.987 1125.69 412.94 1126.04 413.639 1126.74C414.337 1127.42 414.687 1128.28 414.687 1129.31C414.687 1130.33 414.337 1131.18 413.639 1131.86C412.94 1132.54 411.987 1132.88 410.778 1132.88C409.551 1132.88 408.588 1132.54 407.89 1131.86C407.21 1131.18 406.87 1130.33 406.87 1129.31ZM441.279 1137.36H447.481V1167.15C447.481 1169.91 446.896 1172.25 445.726 1174.17C444.555 1176.1 442.922 1177.56 440.826 1178.56C438.73 1179.58 436.304 1180.09 433.548 1180.09C432.377 1180.09 431.075 1179.92 429.64 1179.58C428.224 1179.24 426.845 1178.7 425.505 1177.94C424.183 1177.2 423.079 1176.23 422.191 1175.02L425.392 1171C426.487 1172.3 427.695 1173.26 429.017 1173.86C430.338 1174.47 431.726 1174.77 433.18 1174.77C434.747 1174.77 436.078 1174.48 437.173 1173.89C438.287 1173.32 439.146 1172.48 439.75 1171.37C440.354 1170.26 440.656 1168.9 440.656 1167.29V1144.3L441.279 1137.36ZM420.464 1153.02V1152.42C420.464 1150.1 420.747 1147.99 421.313 1146.08C421.88 1144.15 422.692 1142.5 423.749 1141.12C424.806 1139.73 426.09 1138.66 427.601 1137.92C429.111 1137.17 430.82 1136.79 432.727 1136.79C434.709 1136.79 436.399 1137.15 437.796 1137.87C439.212 1138.58 440.392 1139.61 441.336 1140.95C442.28 1142.28 443.016 1143.86 443.545 1145.71C444.092 1147.54 444.498 1149.58 444.763 1151.83V1153.73C444.517 1155.92 444.102 1157.92 443.517 1159.73C442.931 1161.54 442.157 1163.11 441.194 1164.43C440.231 1165.75 439.042 1166.77 437.626 1167.49C436.229 1168.21 434.577 1168.57 432.67 1168.57C430.801 1168.57 429.111 1168.18 427.601 1167.41C426.109 1166.63 424.825 1165.55 423.749 1164.15C422.692 1162.75 421.88 1161.11 421.313 1159.22C420.747 1157.31 420.464 1155.25 420.464 1153.02ZM427.289 1152.42V1153.02C427.289 1154.42 427.421 1155.72 427.686 1156.93C427.969 1158.14 428.394 1159.2 428.96 1160.13C429.545 1161.03 430.282 1161.75 431.169 1162.28C432.075 1162.79 433.142 1163.04 434.369 1163.04C435.974 1163.04 437.286 1162.7 438.306 1162.02C439.344 1161.34 440.137 1160.43 440.685 1159.28C441.251 1158.11 441.647 1156.8 441.874 1155.37V1150.24C441.761 1149.13 441.525 1148.09 441.166 1147.13C440.826 1146.17 440.364 1145.32 439.778 1144.61C439.193 1143.87 438.457 1143.3 437.569 1142.91C436.682 1142.49 435.634 1142.29 434.426 1142.29C433.199 1142.29 432.132 1142.55 431.226 1143.08C430.319 1143.61 429.574 1144.33 428.988 1145.26C428.422 1146.18 427.997 1147.26 427.714 1148.49C427.431 1149.71 427.289 1151.03 427.289 1152.42ZM481.069 1162.36V1168H460.367V1162.36H481.069ZM462.35 1126.77V1168H455.241V1126.77H462.35ZM499.393 1168.57C497.127 1168.57 495.078 1168.2 493.247 1167.46C491.435 1166.71 489.886 1165.66 488.603 1164.32C487.338 1162.98 486.365 1161.4 485.686 1159.59C485.006 1157.78 484.666 1155.82 484.666 1153.73V1152.59C484.666 1150.2 485.015 1148.02 485.714 1146.08C486.412 1144.14 487.385 1142.47 488.631 1141.1C489.877 1139.7 491.35 1138.63 493.049 1137.9C494.748 1137.16 496.589 1136.79 498.571 1136.79C500.761 1136.79 502.678 1137.16 504.32 1137.9C505.963 1138.63 507.322 1139.67 508.398 1141.01C509.493 1142.33 510.305 1143.91 510.834 1145.74C511.382 1147.57 511.655 1149.59 511.655 1151.8V1154.72H487.979V1149.82H504.915V1149.28C504.877 1148.05 504.632 1146.9 504.179 1145.83C503.744 1144.75 503.074 1143.88 502.168 1143.22C501.262 1142.56 500.053 1142.23 498.543 1142.23C497.41 1142.23 496.4 1142.47 495.513 1142.96C494.644 1143.44 493.917 1144.13 493.332 1145.03C492.747 1145.94 492.294 1147.03 491.973 1148.32C491.671 1149.58 491.52 1151.01 491.52 1152.59V1153.73C491.52 1155.07 491.699 1156.31 492.058 1157.46C492.435 1158.6 492.983 1159.59 493.7 1160.44C494.418 1161.29 495.286 1161.96 496.306 1162.45C497.325 1162.92 498.486 1163.16 499.789 1163.16C501.432 1163.16 502.895 1162.83 504.179 1162.17C505.463 1161.51 506.576 1160.57 507.521 1159.36L511.117 1162.85C510.456 1163.81 509.597 1164.73 508.54 1165.62C507.483 1166.49 506.189 1167.2 504.66 1167.75C503.15 1168.29 501.394 1168.57 499.393 1168.57ZM523.748 1143.9V1168H516.923V1137.36H523.352L523.748 1143.9ZM522.53 1151.55L520.321 1151.52C520.34 1149.35 520.642 1147.35 521.228 1145.54C521.832 1143.73 522.662 1142.17 523.72 1140.87C524.796 1139.57 526.08 1138.57 527.571 1137.87C529.063 1137.15 530.724 1136.79 532.556 1136.79C534.028 1136.79 535.359 1137 536.549 1137.41C537.757 1137.81 538.786 1138.46 539.636 1139.37C540.504 1140.27 541.165 1141.45 541.618 1142.91C542.071 1144.34 542.298 1146.11 542.298 1148.2V1168H535.444V1148.18C535.444 1146.7 535.227 1145.54 534.793 1144.69C534.378 1143.82 533.764 1143.21 532.952 1142.85C532.159 1142.47 531.168 1142.29 529.979 1142.29C528.808 1142.29 527.76 1142.53 526.835 1143.02C525.91 1143.51 525.126 1144.18 524.484 1145.03C523.861 1145.88 523.38 1146.86 523.04 1147.98C522.7 1149.09 522.53 1150.28 522.53 1151.55ZM566.455 1159.7C566.455 1159.02 566.285 1158.41 565.945 1157.86C565.605 1157.29 564.954 1156.79 563.991 1156.33C563.047 1155.88 561.65 1155.46 559.8 1155.09C558.176 1154.73 556.685 1154.3 555.325 1153.81C553.985 1153.3 552.833 1152.69 551.87 1151.97C550.907 1151.25 550.161 1150.4 549.633 1149.42C549.104 1148.44 548.84 1147.31 548.84 1146.02C548.84 1144.78 549.114 1143.6 549.661 1142.48C550.209 1141.37 550.992 1140.39 552.012 1139.54C553.031 1138.69 554.268 1138.02 555.722 1137.53C557.194 1137.04 558.837 1136.79 560.649 1136.79C563.217 1136.79 565.417 1137.23 567.248 1138.09C569.098 1138.94 570.514 1140.1 571.496 1141.58C572.478 1143.03 572.969 1144.67 572.969 1146.5H566.144C566.144 1145.69 565.936 1144.94 565.521 1144.24C565.124 1143.52 564.52 1142.95 563.708 1142.51C562.896 1142.06 561.877 1141.83 560.649 1141.83C559.479 1141.83 558.507 1142.02 557.732 1142.4C556.977 1142.76 556.411 1143.23 556.033 1143.81C555.674 1144.4 555.495 1145.04 555.495 1145.74C555.495 1146.25 555.59 1146.71 555.778 1147.13C555.986 1147.52 556.326 1147.89 556.798 1148.23C557.27 1148.55 557.912 1148.86 558.724 1149.14C559.554 1149.42 560.593 1149.7 561.839 1149.96C564.18 1150.45 566.191 1151.08 567.871 1151.86C569.57 1152.61 570.873 1153.59 571.779 1154.8C572.686 1155.99 573.139 1157.5 573.139 1159.33C573.139 1160.69 572.846 1161.94 572.261 1163.07C571.694 1164.19 570.864 1165.16 569.769 1165.99C568.674 1166.8 567.361 1167.43 565.832 1167.89C564.322 1168.34 562.622 1168.57 560.734 1168.57C557.959 1168.57 555.608 1168.08 553.683 1167.09C551.757 1166.09 550.294 1164.82 549.293 1163.27C548.311 1161.7 547.82 1160.08 547.82 1158.4H554.419C554.494 1159.66 554.844 1160.67 555.467 1161.43C556.109 1162.17 556.902 1162.7 557.846 1163.04C558.809 1163.36 559.8 1163.53 560.819 1163.53C562.047 1163.53 563.076 1163.36 563.906 1163.04C564.737 1162.7 565.369 1162.25 565.804 1161.68C566.238 1161.1 566.455 1160.44 566.455 1159.7ZM626.947 1126.77V1168H619.839L601.346 1138.46V1168H594.237V1126.77H601.346L619.896 1156.36V1126.77H626.947ZM633.433 1153.02V1152.37C633.433 1150.16 633.754 1148.11 634.396 1146.22C635.037 1144.31 635.963 1142.66 637.171 1141.27C638.398 1139.85 639.89 1138.75 641.646 1137.98C643.42 1137.19 645.422 1136.79 647.649 1136.79C649.896 1136.79 651.897 1137.19 653.653 1137.98C655.428 1138.75 656.929 1139.85 658.156 1141.27C659.383 1142.66 660.318 1144.31 660.96 1146.22C661.602 1148.11 661.923 1150.16 661.923 1152.37V1153.02C661.923 1155.23 661.602 1157.28 660.96 1159.16C660.318 1161.05 659.383 1162.7 658.156 1164.12C656.929 1165.52 655.438 1166.61 653.682 1167.41C651.926 1168.18 649.934 1168.57 647.706 1168.57C645.459 1168.57 643.449 1168.18 641.674 1167.41C639.918 1166.61 638.426 1165.52 637.199 1164.12C635.972 1162.7 635.037 1161.05 634.396 1159.16C633.754 1157.28 633.433 1155.23 633.433 1153.02ZM640.258 1152.37V1153.02C640.258 1154.4 640.399 1155.7 640.683 1156.93C640.966 1158.15 641.41 1159.23 642.014 1160.16C642.618 1161.08 643.392 1161.81 644.336 1162.34C645.28 1162.86 646.403 1163.13 647.706 1163.13C648.971 1163.13 650.066 1162.86 650.991 1162.34C651.935 1161.81 652.709 1161.08 653.313 1160.16C653.918 1159.23 654.361 1158.15 654.645 1156.93C654.947 1155.7 655.098 1154.4 655.098 1153.02V1152.37C655.098 1151.01 654.947 1149.72 654.645 1148.52C654.361 1147.29 653.908 1146.2 653.285 1145.26C652.681 1144.31 651.907 1143.58 650.963 1143.05C650.038 1142.5 648.933 1142.23 647.649 1142.23C646.366 1142.23 645.252 1142.5 644.308 1143.05C643.382 1143.58 642.618 1144.31 642.014 1145.26C641.41 1146.2 640.966 1147.29 640.683 1148.52C640.399 1149.72 640.258 1151.01 640.258 1152.37ZM686.335 1161.66V1124.5H693.188V1168H686.986L686.335 1161.66ZM666.397 1153.02V1152.42C666.397 1150.1 666.671 1147.99 667.219 1146.08C667.766 1144.15 668.559 1142.5 669.598 1141.12C670.636 1139.73 671.901 1138.66 673.393 1137.92C674.884 1137.17 676.564 1136.79 678.434 1136.79C680.284 1136.79 681.908 1137.15 683.305 1137.87C684.702 1138.58 685.891 1139.61 686.873 1140.95C687.855 1142.28 688.638 1143.86 689.224 1145.71C689.809 1147.54 690.224 1149.58 690.47 1151.83V1153.73C690.224 1155.92 689.809 1157.92 689.224 1159.73C688.638 1161.54 687.855 1163.11 686.873 1164.43C685.891 1165.75 684.692 1166.77 683.276 1167.49C681.879 1168.21 680.246 1168.57 678.377 1168.57C676.527 1168.57 674.856 1168.18 673.364 1167.41C671.892 1166.63 670.636 1165.55 669.598 1164.15C668.559 1162.75 667.766 1161.11 667.219 1159.22C666.671 1157.31 666.397 1155.25 666.397 1153.02ZM673.223 1152.42V1153.02C673.223 1154.42 673.345 1155.72 673.591 1156.93C673.855 1158.14 674.261 1159.2 674.809 1160.13C675.356 1161.03 676.064 1161.75 676.933 1162.28C677.82 1162.79 678.877 1163.04 680.104 1163.04C681.653 1163.04 682.927 1162.7 683.928 1162.02C684.928 1161.34 685.712 1160.43 686.278 1159.28C686.864 1158.11 687.26 1156.8 687.468 1155.37V1150.24C687.354 1149.13 687.118 1148.09 686.76 1147.13C686.42 1146.17 685.957 1145.32 685.372 1144.61C684.787 1143.87 684.06 1143.3 683.191 1142.91C682.342 1142.49 681.332 1142.29 680.161 1142.29C678.915 1142.29 677.858 1142.55 676.989 1143.08C676.121 1143.61 675.403 1144.33 674.837 1145.26C674.289 1146.18 673.883 1147.26 673.619 1148.49C673.355 1149.71 673.223 1151.03 673.223 1152.42ZM713.834 1168.57C711.568 1168.57 709.52 1168.2 707.688 1167.46C705.876 1166.71 704.328 1165.66 703.044 1164.32C701.779 1162.98 700.807 1161.4 700.127 1159.59C699.447 1157.78 699.107 1155.82 699.107 1153.73V1152.59C699.107 1150.2 699.457 1148.02 700.155 1146.08C700.854 1144.14 701.826 1142.47 703.072 1141.1C704.318 1139.7 705.791 1138.63 707.49 1137.9C709.189 1137.16 711.03 1136.79 713.013 1136.79C715.203 1136.79 717.119 1137.16 718.762 1137.9C720.404 1138.63 721.764 1139.67 722.84 1141.01C723.935 1142.33 724.747 1143.91 725.275 1145.74C725.823 1147.57 726.097 1149.59 726.097 1151.8V1154.72H702.421V1149.82H719.356V1149.28C719.319 1148.05 719.073 1146.9 718.62 1145.83C718.186 1144.75 717.516 1143.88 716.609 1143.22C715.703 1142.56 714.495 1142.23 712.984 1142.23C711.852 1142.23 710.841 1142.47 709.954 1142.96C709.086 1143.44 708.359 1144.13 707.773 1145.03C707.188 1145.94 706.735 1147.03 706.414 1148.32C706.112 1149.58 705.961 1151.01 705.961 1152.59V1153.73C705.961 1155.07 706.14 1156.31 706.499 1157.46C706.877 1158.6 707.424 1159.59 708.142 1160.44C708.859 1161.29 709.728 1161.96 710.747 1162.45C711.767 1162.92 712.928 1163.16 714.23 1163.16C715.873 1163.16 717.336 1162.83 718.62 1162.17C719.904 1161.51 721.018 1160.57 721.962 1159.36L725.559 1162.85C724.898 1163.81 724.039 1164.73 722.981 1165.62C721.924 1166.49 720.631 1167.2 719.102 1167.75C717.591 1168.29 715.835 1168.57 713.834 1168.57Z" fill="#9B89E7"/>
<path d="M246.341 988.38C246.341 987.53 246.209 986.775 245.944 986.114C245.699 985.453 245.255 984.849 244.613 984.302C243.971 983.754 243.065 983.226 241.895 982.716C240.743 982.187 239.27 981.649 237.477 981.102C235.513 980.497 233.701 979.827 232.039 979.091C230.396 978.336 228.962 977.467 227.734 976.485C226.507 975.485 225.554 974.342 224.874 973.059C224.194 971.756 223.854 970.255 223.854 968.556C223.854 966.875 224.204 965.346 224.902 963.968C225.62 962.59 226.63 961.4 227.933 960.399C229.254 959.38 230.812 958.596 232.605 958.049C234.399 957.482 236.382 957.199 238.553 957.199C241.611 957.199 244.245 957.766 246.454 958.898C248.682 960.031 250.391 961.551 251.58 963.458C252.788 965.365 253.393 967.47 253.393 969.773H246.341C246.341 968.414 246.048 967.215 245.463 966.177C244.896 965.119 244.028 964.289 242.857 963.685C241.706 963.08 240.243 962.778 238.468 962.778C236.787 962.778 235.39 963.033 234.276 963.543C233.162 964.053 232.332 964.742 231.784 965.61C231.237 966.479 230.963 967.461 230.963 968.556C230.963 969.33 231.142 970.038 231.501 970.68C231.86 971.303 232.407 971.888 233.144 972.436C233.88 972.964 234.805 973.465 235.919 973.937C237.033 974.409 238.345 974.862 239.855 975.296C242.14 975.976 244.132 976.731 245.831 977.562C247.53 978.373 248.946 979.299 250.079 980.337C251.212 981.375 252.062 982.555 252.628 983.877C253.194 985.18 253.478 986.662 253.478 988.323C253.478 990.06 253.128 991.627 252.43 993.024C251.731 994.403 250.73 995.583 249.428 996.564C248.144 997.527 246.596 998.273 244.783 998.802C242.99 999.312 240.988 999.566 238.779 999.566C236.797 999.566 234.843 999.302 232.917 998.773C231.01 998.245 229.273 997.442 227.706 996.366C226.139 995.271 224.893 993.912 223.968 992.288C223.043 990.646 222.58 988.729 222.58 986.539H229.688C229.688 987.88 229.915 989.022 230.368 989.966C230.84 990.91 231.492 991.684 232.322 992.288C233.153 992.873 234.116 993.308 235.211 993.591C236.325 993.874 237.514 994.016 238.779 994.016C240.441 994.016 241.828 993.78 242.942 993.308C244.075 992.836 244.925 992.175 245.491 991.325C246.058 990.476 246.341 989.494 246.341 988.38ZM266.392 968.357V999H259.538V968.357H266.392ZM259.085 960.314C259.085 959.276 259.425 958.417 260.104 957.737C260.803 957.039 261.766 956.689 262.993 956.689C264.201 956.689 265.155 957.039 265.854 957.737C266.552 958.417 266.901 959.276 266.901 960.314C266.901 961.334 266.552 962.184 265.854 962.863C265.155 963.543 264.201 963.883 262.993 963.883C261.766 963.883 260.803 963.543 260.104 962.863C259.425 962.184 259.085 961.334 259.085 960.314ZM293.494 968.357H299.696V998.15C299.696 1000.91 299.111 1003.25 297.94 1005.17C296.77 1007.1 295.137 1008.56 293.041 1009.56C290.945 1010.58 288.519 1011.09 285.763 1011.09C284.592 1011.09 283.289 1010.92 281.854 1010.58C280.438 1010.24 279.06 1009.7 277.72 1008.94C276.398 1008.2 275.294 1007.23 274.406 1006.02L277.606 1002C278.701 1003.3 279.91 1004.26 281.231 1004.86C282.553 1005.47 283.941 1005.77 285.395 1005.77C286.962 1005.77 288.293 1005.48 289.388 1004.89C290.502 1004.32 291.361 1003.48 291.965 1002.37C292.569 1001.26 292.871 999.897 292.871 998.292V975.296L293.494 968.357ZM272.679 984.019V983.424C272.679 981.102 272.962 978.987 273.528 977.08C274.095 975.154 274.907 973.502 275.964 972.124C277.021 970.727 278.305 969.66 279.815 968.924C281.326 968.169 283.035 967.791 284.941 967.791C286.924 967.791 288.614 968.15 290.011 968.867C291.427 969.585 292.607 970.614 293.551 971.954C294.495 973.276 295.231 974.862 295.76 976.712C296.307 978.543 296.713 980.582 296.978 982.829V984.727C296.732 986.917 296.317 988.918 295.731 990.73C295.146 992.543 294.372 994.11 293.409 995.432C292.446 996.753 291.257 997.773 289.841 998.49C288.444 999.208 286.792 999.566 284.885 999.566C283.016 999.566 281.326 999.179 279.815 998.405C278.324 997.631 277.04 996.546 275.964 995.148C274.907 993.751 274.095 992.109 273.528 990.221C272.962 988.314 272.679 986.246 272.679 984.019ZM279.504 983.424V984.019C279.504 985.416 279.636 986.718 279.9 987.927C280.184 989.135 280.608 990.202 281.175 991.127C281.76 992.033 282.496 992.751 283.384 993.279C284.29 993.789 285.357 994.044 286.584 994.044C288.189 994.044 289.501 993.704 290.521 993.024C291.559 992.345 292.352 991.429 292.899 990.277C293.466 989.107 293.862 987.804 294.089 986.369V981.243C293.976 980.129 293.74 979.091 293.381 978.128C293.041 977.165 292.578 976.325 291.993 975.607C291.408 974.871 290.672 974.305 289.784 973.908C288.897 973.493 287.849 973.285 286.641 973.285C285.413 973.285 284.347 973.549 283.44 974.078C282.534 974.607 281.788 975.334 281.203 976.259C280.637 977.184 280.212 978.26 279.929 979.487C279.646 980.715 279.504 982.027 279.504 983.424ZM329.149 988.38C329.149 987.53 329.017 986.775 328.753 986.114C328.507 985.453 328.064 984.849 327.422 984.302C326.78 983.754 325.874 983.226 324.703 982.716C323.551 982.187 322.079 981.649 320.285 981.102C318.322 980.497 316.509 979.827 314.848 979.091C313.205 978.336 311.77 977.467 310.543 976.485C309.316 975.485 308.362 974.342 307.683 973.059C307.003 971.756 306.663 970.255 306.663 968.556C306.663 966.875 307.012 965.346 307.711 963.968C308.428 962.59 309.438 961.4 310.741 960.399C312.063 959.38 313.62 958.596 315.414 958.049C317.208 957.482 319.19 957.199 321.361 957.199C324.42 957.199 327.054 957.766 329.263 958.898C331.491 960.031 333.199 961.551 334.389 963.458C335.597 965.365 336.201 967.47 336.201 969.773H329.149C329.149 968.414 328.857 967.215 328.271 966.177C327.705 965.119 326.837 964.289 325.666 963.685C324.514 963.08 323.051 962.778 321.276 962.778C319.596 962.778 318.199 963.033 317.085 963.543C315.971 964.053 315.14 964.742 314.593 965.61C314.045 966.479 313.771 967.461 313.771 968.556C313.771 969.33 313.951 970.038 314.31 970.68C314.668 971.303 315.216 971.888 315.952 972.436C316.688 972.964 317.614 973.465 318.728 973.937C319.841 974.409 321.154 974.862 322.664 975.296C324.949 975.976 326.94 976.731 328.64 977.562C330.339 978.373 331.755 979.299 332.888 980.337C334.021 981.375 334.87 982.555 335.437 983.877C336.003 985.18 336.286 986.662 336.286 988.323C336.286 990.06 335.937 991.627 335.238 993.024C334.54 994.403 333.539 995.583 332.236 996.564C330.952 997.527 329.404 998.273 327.592 998.802C325.798 999.312 323.797 999.566 321.588 999.566C319.605 999.566 317.651 999.302 315.726 998.773C313.819 998.245 312.082 997.442 310.515 996.366C308.948 995.271 307.701 993.912 306.776 992.288C305.851 990.646 305.389 988.729 305.389 986.539H312.497C312.497 987.88 312.724 989.022 313.177 989.966C313.649 990.91 314.3 991.684 315.131 992.288C315.962 992.873 316.924 993.308 318.02 993.591C319.133 993.874 320.323 994.016 321.588 994.016C323.249 994.016 324.637 993.78 325.751 993.308C326.884 992.836 327.733 992.175 328.3 991.325C328.866 990.476 329.149 989.494 329.149 988.38ZM354.411 994.129C355.525 994.129 356.526 993.912 357.413 993.478C358.319 993.024 359.046 992.401 359.594 991.608C360.16 990.815 360.472 989.9 360.528 988.861H366.957C366.919 990.844 366.334 992.647 365.201 994.271C364.068 995.894 362.567 997.188 360.698 998.15C358.829 999.094 356.762 999.566 354.496 999.566C352.155 999.566 350.116 999.17 348.379 998.377C346.642 997.565 345.198 996.451 344.046 995.035C342.894 993.619 342.026 991.986 341.44 990.136C340.874 988.285 340.591 986.303 340.591 984.188V983.197C340.591 981.083 340.874 979.1 341.44 977.25C342.026 975.381 342.894 973.738 344.046 972.322C345.198 970.906 346.642 969.802 348.379 969.009C350.116 968.197 352.146 967.791 354.468 967.791C356.922 967.791 359.075 968.282 360.925 969.264C362.775 970.227 364.229 971.576 365.286 973.313C366.362 975.032 366.919 977.033 366.957 979.317H360.528C360.472 978.185 360.188 977.165 359.679 976.259C359.188 975.334 358.489 974.597 357.583 974.05C356.696 973.502 355.629 973.229 354.383 973.229C353.005 973.229 351.862 973.512 350.956 974.078C350.05 974.626 349.342 975.381 348.832 976.344C348.322 977.288 347.954 978.354 347.728 979.544C347.52 980.715 347.416 981.932 347.416 983.197V984.188C347.416 985.453 347.52 986.681 347.728 987.87C347.935 989.06 348.294 990.126 348.804 991.07C349.332 991.995 350.05 992.741 350.956 993.308C351.862 993.855 353.014 994.129 354.411 994.129ZM389.472 992.854V978.241C389.472 977.146 389.273 976.202 388.877 975.409C388.48 974.616 387.876 974.003 387.064 973.568C386.271 973.134 385.271 972.917 384.062 972.917C382.949 972.917 381.986 973.106 381.174 973.483C380.362 973.861 379.729 974.371 379.276 975.013C378.823 975.655 378.597 976.382 378.597 977.193H371.8C371.8 975.985 372.092 974.814 372.678 973.682C373.263 972.549 374.113 971.539 375.227 970.651C376.34 969.764 377.672 969.065 379.22 968.556C380.768 968.046 382.505 967.791 384.431 967.791C386.734 967.791 388.773 968.178 390.548 968.952C392.341 969.726 393.748 970.897 394.768 972.464C395.806 974.012 396.325 975.957 396.325 978.298V991.92C396.325 993.317 396.42 994.573 396.608 995.687C396.816 996.782 397.109 997.735 397.486 998.547V999H390.491C390.17 998.264 389.915 997.329 389.727 996.196C389.557 995.045 389.472 993.931 389.472 992.854ZM390.463 980.365L390.52 984.585H385.62C384.355 984.585 383.241 984.708 382.278 984.953C381.315 985.18 380.513 985.52 379.871 985.973C379.229 986.426 378.748 986.973 378.427 987.615C378.106 988.257 377.945 988.984 377.945 989.796C377.945 990.608 378.134 991.354 378.512 992.033C378.889 992.694 379.437 993.213 380.154 993.591C380.891 993.968 381.778 994.157 382.816 994.157C384.214 994.157 385.431 993.874 386.47 993.308C387.527 992.722 388.358 992.014 388.962 991.184C389.566 990.334 389.887 989.532 389.925 988.776L392.134 991.807C391.907 992.581 391.52 993.411 390.973 994.299C390.425 995.186 389.708 996.036 388.82 996.848C387.952 997.641 386.904 998.292 385.677 998.802C384.468 999.312 383.071 999.566 381.485 999.566C379.484 999.566 377.7 999.17 376.133 998.377C374.566 997.565 373.339 996.479 372.451 995.12C371.564 993.742 371.12 992.184 371.12 990.447C371.12 988.824 371.422 987.389 372.026 986.143C372.649 984.878 373.556 983.82 374.745 982.971C375.953 982.121 377.426 981.479 379.163 981.045C380.9 980.592 382.882 980.365 385.11 980.365H390.463ZM410.769 955.5V999H403.915V955.5H410.769ZM425.099 974.191V999H418.273V968.357H424.787L425.099 974.191ZM434.473 968.159L434.416 974.503C434.001 974.427 433.548 974.371 433.057 974.333C432.585 974.295 432.113 974.276 431.641 974.276C430.47 974.276 429.441 974.446 428.554 974.786C427.666 975.107 426.921 975.579 426.316 976.202C425.731 976.806 425.278 977.543 424.957 978.411C424.636 979.28 424.447 980.252 424.391 981.328L422.833 981.441C422.833 979.516 423.022 977.731 423.399 976.089C423.777 974.446 424.343 973.002 425.099 971.756C425.873 970.51 426.836 969.537 427.987 968.839C429.158 968.14 430.508 967.791 432.037 967.791C432.452 967.791 432.896 967.829 433.368 967.904C433.859 967.98 434.227 968.065 434.473 968.159ZM486.582 957.766V999H479.474L460.98 969.462V999H453.872V957.766H460.98L479.53 987.36V957.766H486.582ZM493.067 984.019V983.367C493.067 981.158 493.388 979.11 494.03 977.222C494.672 975.315 495.597 973.663 496.806 972.266C498.033 970.85 499.524 969.755 501.28 968.98C503.055 968.188 505.056 967.791 507.284 967.791C509.531 967.791 511.532 968.188 513.288 968.98C515.063 969.755 516.564 970.85 517.791 972.266C519.018 973.663 519.953 975.315 520.595 977.222C521.237 979.11 521.558 981.158 521.558 983.367V984.019C521.558 986.228 521.237 988.276 520.595 990.164C519.953 992.052 519.018 993.704 517.791 995.12C516.564 996.517 515.072 997.612 513.316 998.405C511.561 999.179 509.569 999.566 507.341 999.566C505.094 999.566 503.083 999.179 501.309 998.405C499.553 997.612 498.061 996.517 496.834 995.12C495.607 993.704 494.672 992.052 494.03 990.164C493.388 988.276 493.067 986.228 493.067 984.019ZM499.893 983.367V984.019C499.893 985.397 500.034 986.7 500.317 987.927C500.601 989.154 501.044 990.23 501.648 991.155C502.253 992.08 503.027 992.807 503.971 993.336C504.915 993.865 506.038 994.129 507.341 994.129C508.606 994.129 509.701 993.865 510.626 993.336C511.57 992.807 512.344 992.08 512.948 991.155C513.552 990.23 513.996 989.154 514.279 987.927C514.581 986.7 514.732 985.397 514.732 984.019V983.367C514.732 982.008 514.581 980.724 514.279 979.516C513.996 978.288 513.543 977.203 512.92 976.259C512.316 975.315 511.542 974.578 510.598 974.05C509.673 973.502 508.568 973.229 507.284 973.229C506 973.229 504.886 973.502 503.942 974.05C503.017 974.578 502.253 975.315 501.648 976.259C501.044 977.203 500.601 978.288 500.317 979.516C500.034 980.724 499.893 982.008 499.893 983.367ZM545.97 992.656V955.5H552.823V999H546.621L545.97 992.656ZM526.032 984.019V983.424C526.032 981.102 526.306 978.987 526.854 977.08C527.401 975.154 528.194 973.502 529.232 972.124C530.271 970.727 531.536 969.66 533.027 968.924C534.519 968.169 536.199 967.791 538.068 967.791C539.919 967.791 541.542 968.15 542.939 968.867C544.337 969.585 545.526 970.614 546.508 971.954C547.49 973.276 548.273 974.862 548.858 976.712C549.444 978.543 549.859 980.582 550.104 982.829V984.727C549.859 986.917 549.444 988.918 548.858 990.73C548.273 992.543 547.49 994.11 546.508 995.432C545.526 996.753 544.327 997.773 542.911 998.49C541.514 999.208 539.881 999.566 538.012 999.566C536.161 999.566 534.491 999.179 532.999 998.405C531.526 997.631 530.271 996.546 529.232 995.148C528.194 993.751 527.401 992.109 526.854 990.221C526.306 988.314 526.032 986.246 526.032 984.019ZM532.857 983.424V984.019C532.857 985.416 532.98 986.718 533.226 987.927C533.49 989.135 533.896 990.202 534.443 991.127C534.991 992.033 535.699 992.751 536.567 993.279C537.455 993.789 538.512 994.044 539.739 994.044C541.287 994.044 542.562 993.704 543.562 993.024C544.563 992.345 545.347 991.429 545.913 990.277C546.498 989.107 546.895 987.804 547.103 986.369V981.243C546.989 980.129 546.753 979.091 546.395 978.128C546.055 977.165 545.592 976.325 545.007 975.607C544.422 974.871 543.695 974.305 542.826 973.908C541.977 973.493 540.966 973.285 539.796 973.285C538.55 973.285 537.493 973.549 536.624 974.078C535.756 974.607 535.038 975.334 534.472 976.259C533.924 977.184 533.518 978.26 533.254 979.487C532.99 980.715 532.857 982.027 532.857 983.424ZM573.469 999.566C571.203 999.566 569.155 999.198 567.323 998.462C565.511 997.707 563.963 996.659 562.679 995.318C561.414 993.978 560.441 992.401 559.762 990.589C559.082 988.776 558.742 986.822 558.742 984.727V983.594C558.742 981.196 559.091 979.025 559.79 977.08C560.489 975.135 561.461 973.474 562.707 972.096C563.953 970.699 565.426 969.632 567.125 968.896C568.824 968.159 570.665 967.791 572.647 967.791C574.838 967.791 576.754 968.159 578.396 968.896C580.039 969.632 581.398 970.67 582.475 972.011C583.57 973.332 584.382 974.909 584.91 976.74C585.458 978.572 585.731 980.592 585.731 982.801V985.718H562.056V980.818H578.991V980.28C578.953 979.053 578.708 977.901 578.255 976.825C577.821 975.749 577.15 974.881 576.244 974.22C575.338 973.559 574.13 973.229 572.619 973.229C571.486 973.229 570.476 973.474 569.589 973.965C568.72 974.437 567.993 975.126 567.408 976.032C566.823 976.938 566.37 978.034 566.049 979.317C565.747 980.582 565.596 982.008 565.596 983.594V984.727C565.596 986.067 565.775 987.313 566.134 988.465C566.511 989.598 567.059 990.589 567.776 991.438C568.494 992.288 569.362 992.958 570.382 993.449C571.401 993.921 572.562 994.157 573.865 994.157C575.508 994.157 576.971 993.827 578.255 993.166C579.539 992.505 580.653 991.571 581.597 990.362L585.193 993.846C584.533 994.809 583.674 995.734 582.616 996.621C581.559 997.49 580.266 998.198 578.736 998.745C577.226 999.293 575.47 999.566 573.469 999.566Z" fill="#160F29"/>
<path fill-rule="evenodd" clip-rule="evenodd" d="M675.911 611.082C677.134 608.492 677.763 605.859 677.763 603.192C677.763 601.092 677.373 599.014 676.611 596.961L676.621 596.769H676.539C662.902 561.157 536.973 533.259 383.639 533.259C230.306 533.259 104.377 561.157 90.7394 596.769H88.2373V625.313L272.937 839.133C277.483 854.163 327.142 866 387.732 866C448.647 866 498.513 854.036 502.597 838.891L675.206 625.313L675.911 611.082Z" fill="url(#paint1_linear_115_231)"/>
<g filter="url(#filter1_d_115_231)">
<path fill-rule="evenodd" clip-rule="evenodd" d="M89.279 404.102H88V608.709C88 643.316 219.684 671.37 382.124 671.37C544.563 671.37 676.247 643.316 676.247 608.709V409.984C662.328 441.832 536.531 466.762 383.403 466.762C220.964 466.762 89.2805 438.708 89.279 404.102Z" fill="#F4B34D"/>
<ellipse cx="383.403" cy="404.101" rx="294.124" ry="62.6611" fill="#FCEDD5"/>
<ellipse cx="384.042" cy="403.742" rx="164.326" ry="31.6119" fill="#F4B34D"/>
</g>
<rect x="1" y="90.5156" width="198.771" height="124.601" rx="19" fill="#E6E2F9" stroke="#B4A6E6" stroke-width="2"/>
<path d="M75.3297 162.714V166.601H61.0524V162.714H75.3297ZM62.4196 138.163V166.601H57.5172V138.163H62.4196ZM78.9516 156.269V155.819C78.9516 154.296 79.1729 152.883 79.6156 151.581C80.0584 150.266 80.6964 149.127 81.5297 148.163C82.3761 147.187 83.4047 146.431 84.6156 145.898C85.8396 145.351 87.2198 145.077 88.7563 145.077C90.3058 145.077 91.686 145.351 92.8969 145.898C94.1209 146.431 95.156 147.187 96.0024 148.163C96.8487 149.127 97.4933 150.266 97.936 151.581C98.3787 152.883 98.6 154.296 98.6 155.819V156.269C98.6 157.792 98.3787 159.205 97.936 160.507C97.4933 161.809 96.8487 162.948 96.0024 163.925C95.156 164.888 94.1274 165.644 92.9164 166.191C91.7055 166.724 90.3318 166.991 88.7953 166.991C87.2459 166.991 85.8591 166.724 84.6352 166.191C83.4242 165.644 82.3956 164.888 81.5492 163.925C80.7029 162.948 80.0584 161.809 79.6156 160.507C79.1729 159.205 78.9516 157.792 78.9516 156.269ZM83.6586 155.819V156.269C83.6586 157.219 83.7563 158.118 83.9516 158.964C84.1469 159.81 84.4529 160.553 84.8696 161.191C85.2862 161.829 85.8201 162.33 86.4711 162.694C87.1222 163.059 87.8969 163.241 88.7953 163.241C89.6677 163.241 90.4229 163.059 91.061 162.694C91.712 162.33 92.2459 161.829 92.6625 161.191C93.0792 160.553 93.3852 159.81 93.5805 158.964C93.7888 158.118 93.893 157.219 93.893 156.269V155.819C93.893 154.882 93.7888 153.997 93.5805 153.163C93.3852 152.317 93.0727 151.568 92.643 150.917C92.2263 150.266 91.6925 149.758 91.0414 149.394C90.4034 149.016 89.6417 148.827 88.7563 148.827C87.8709 148.827 87.1026 149.016 86.4516 149.394C85.8136 149.758 85.2862 150.266 84.8696 150.917C84.4529 151.568 84.1469 152.317 83.9516 153.163C83.7563 153.997 83.6586 154.882 83.6586 155.819ZM117.28 145.468H121.558V166.015C121.558 167.916 121.154 169.53 120.347 170.859C119.54 172.187 118.413 173.196 116.968 173.886C115.523 174.589 113.849 174.941 111.948 174.941C111.141 174.941 110.243 174.823 109.253 174.589C108.277 174.355 107.326 173.977 106.402 173.456C105.49 172.948 104.728 172.278 104.116 171.444L106.323 168.671C107.079 169.569 107.912 170.227 108.823 170.644C109.735 171.06 110.692 171.269 111.695 171.269C112.775 171.269 113.693 171.067 114.448 170.663C115.217 170.273 115.809 169.693 116.226 168.925C116.642 168.157 116.851 167.219 116.851 166.112V150.253L117.28 145.468ZM102.925 156.269V155.859C102.925 154.257 103.12 152.799 103.511 151.484C103.902 150.155 104.461 149.016 105.191 148.066C105.92 147.102 106.805 146.366 107.847 145.859C108.889 145.338 110.067 145.077 111.382 145.077C112.749 145.077 113.915 145.325 114.878 145.819C115.855 146.314 116.669 147.024 117.32 147.948C117.971 148.86 118.478 149.954 118.843 151.23C119.221 152.493 119.501 153.899 119.683 155.448V156.757C119.514 158.267 119.227 159.648 118.823 160.898C118.42 162.148 117.886 163.228 117.222 164.14C116.558 165.051 115.738 165.754 114.761 166.249C113.797 166.744 112.658 166.991 111.343 166.991C110.054 166.991 108.889 166.724 107.847 166.191C106.818 165.657 105.933 164.908 105.191 163.944C104.461 162.981 103.902 161.848 103.511 160.546C103.12 159.231 102.925 157.805 102.925 156.269ZM107.632 155.859V156.269C107.632 157.232 107.723 158.131 107.905 158.964C108.101 159.797 108.394 160.533 108.784 161.171C109.188 161.796 109.696 162.291 110.308 162.655C110.933 163.007 111.669 163.183 112.515 163.183C113.622 163.183 114.527 162.948 115.23 162.48C115.946 162.011 116.493 161.379 116.87 160.585C117.261 159.778 117.534 158.879 117.691 157.89V154.355C117.613 153.586 117.45 152.87 117.202 152.206C116.968 151.542 116.649 150.963 116.245 150.468C115.842 149.96 115.334 149.569 114.722 149.296C114.11 149.01 113.387 148.866 112.554 148.866C111.708 148.866 110.972 149.049 110.347 149.413C109.722 149.778 109.208 150.279 108.804 150.917C108.413 151.555 108.12 152.297 107.925 153.144C107.73 153.99 107.632 154.895 107.632 155.859ZM139.496 160.878C139.496 160.409 139.379 159.986 139.145 159.609C138.91 159.218 138.461 158.866 137.797 158.554C137.146 158.241 136.182 157.955 134.906 157.694C133.786 157.447 132.758 157.154 131.82 156.816C130.896 156.464 130.102 156.041 129.438 155.546C128.773 155.051 128.259 154.465 127.895 153.788C127.53 153.111 127.348 152.33 127.348 151.444C127.348 150.585 127.536 149.771 127.914 149.003C128.292 148.235 128.832 147.558 129.535 146.972C130.238 146.386 131.091 145.924 132.094 145.585C133.109 145.247 134.242 145.077 135.492 145.077C137.263 145.077 138.78 145.377 140.043 145.976C141.319 146.562 142.296 147.362 142.973 148.378C143.65 149.381 143.988 150.513 143.988 151.776H139.281C139.281 151.217 139.138 150.696 138.852 150.214C138.578 149.719 138.161 149.322 137.602 149.023C137.042 148.71 136.339 148.554 135.492 148.554C134.685 148.554 134.014 148.684 133.48 148.944C132.96 149.192 132.569 149.517 132.309 149.921C132.061 150.325 131.938 150.767 131.938 151.249C131.938 151.601 132.003 151.92 132.133 152.206C132.276 152.48 132.51 152.734 132.836 152.968C133.161 153.189 133.604 153.398 134.164 153.593C134.737 153.788 135.453 153.977 136.313 154.159C137.927 154.498 139.314 154.934 140.473 155.468C141.645 155.989 142.543 156.666 143.168 157.499C143.793 158.319 144.105 159.361 144.105 160.624C144.105 161.562 143.904 162.421 143.5 163.202C143.109 163.97 142.536 164.641 141.781 165.214C141.026 165.774 140.121 166.21 139.066 166.523C138.025 166.835 136.853 166.991 135.551 166.991C133.637 166.991 132.016 166.653 130.688 165.976C129.359 165.286 128.35 164.407 127.66 163.339C126.983 162.258 126.645 161.138 126.645 159.98H131.195C131.247 160.852 131.488 161.549 131.918 162.069C132.361 162.577 132.908 162.948 133.559 163.183C134.223 163.404 134.906 163.515 135.609 163.515C136.456 163.515 137.165 163.404 137.738 163.183C138.311 162.948 138.747 162.636 139.047 162.245C139.346 161.842 139.496 161.386 139.496 160.878Z" fill="black"/>
<path d="M103.386 220.117C103.386 218.46 102.043 217.117 100.386 217.117C98.7289 217.117 97.3857 218.46 97.3857 220.117H103.386ZM246.291 365.739C247.462 366.911 249.362 366.911 250.533 365.739L269.625 346.647C270.797 345.475 270.797 343.576 269.625 342.404C268.454 341.233 266.554 341.233 265.383 342.404L248.412 359.375L231.442 342.404C230.27 341.233 228.371 341.233 227.199 342.404C226.027 343.576 226.027 345.475 227.199 346.647L246.291 365.739ZM248.412 328.349L245.412 328.349L248.412 328.349ZM97.3857 220.117V280.349H103.386V220.117H97.3857ZM124.386 307.349H224.412V301.349H124.386V307.349ZM245.412 328.349L245.412 363.618L251.412 363.618L251.412 328.349L245.412 328.349ZM224.412 307.349C236.01 307.349 245.412 316.751 245.412 328.349L251.412 328.349C251.412 313.437 239.324 301.349 224.412 301.349V307.349ZM97.3857 280.349C97.3857 295.261 109.474 307.349 124.386 307.349V301.349C112.788 301.349 103.386 291.947 103.386 280.349H97.3857Z" fill="#826CE1"/>
<rect x="283.614" y="1" width="198.771" height="124.601" rx="19" fill="#E6E2F9" stroke="#B4A6E6" stroke-width="2"/>
<path d="M316.32 48.6476H320.695L328.917 70.5812L337.121 48.6476H341.496L330.636 77.0851H327.16L316.32 48.6476ZM314.328 48.6476H318.488L319.21 67.632V77.0851H314.328V48.6476ZM339.328 48.6476H343.507V77.0851H338.605V67.632L339.328 48.6476ZM359.375 77.4757C357.813 77.4757 356.4 77.2218 355.137 76.714C353.887 76.1932 352.819 75.4705 351.934 74.546C351.061 73.6215 350.391 72.5343 349.922 71.2843C349.453 70.0343 349.219 68.6866 349.219 67.2413V66.4601C349.219 64.8064 349.46 63.309 349.942 61.9679C350.423 60.6267 351.094 59.4809 351.953 58.5304C352.813 57.5669 353.828 56.8312 355 56.3234C356.172 55.8156 357.442 55.5616 358.809 55.5616C360.319 55.5616 361.641 55.8156 362.774 56.3234C363.906 56.8312 364.844 57.5473 365.586 58.4718C366.341 59.3833 366.901 60.4705 367.266 61.7335C367.643 62.9965 367.832 64.3898 367.832 65.9132V67.9249H351.504V64.546H363.184V64.1749C363.158 63.3286 362.988 62.5343 362.676 61.7921C362.377 61.0499 361.914 60.451 361.289 59.9952C360.664 59.5395 359.831 59.3116 358.789 59.3116C358.008 59.3116 357.311 59.4809 356.699 59.8195C356.1 60.145 355.599 60.6202 355.196 61.2452C354.792 61.8702 354.479 62.6254 354.258 63.5109C354.05 64.3833 353.946 65.3663 353.946 66.4601V67.2413C353.946 68.1658 354.069 69.0252 354.317 69.8195C354.577 70.6007 354.955 71.2843 355.449 71.8702C355.944 72.4562 356.543 72.9184 357.246 73.257C357.949 73.5825 358.75 73.7452 359.649 73.7452C360.781 73.7452 361.791 73.5174 362.676 73.0616C363.561 72.6059 364.33 71.9614 364.981 71.1281L367.461 73.5304C367.005 74.1945 366.413 74.8325 365.684 75.4445C364.955 76.0434 364.063 76.5317 363.008 76.9093C361.966 77.2869 360.755 77.4757 359.375 77.4757ZM382.392 55.9523V59.3898H370.478V55.9523H382.392ZM373.915 50.7765H378.622V71.2452C378.622 71.8963 378.713 72.3976 378.896 72.7491C379.091 73.0877 379.358 73.3156 379.696 73.4327C380.035 73.5499 380.432 73.6085 380.888 73.6085C381.213 73.6085 381.526 73.589 381.825 73.5499C382.125 73.5109 382.366 73.4718 382.548 73.4327L382.567 77.0265C382.177 77.1437 381.721 77.2478 381.2 77.339C380.692 77.4301 380.106 77.4757 379.442 77.4757C378.362 77.4757 377.405 77.2869 376.571 76.9093C375.738 76.5187 375.087 75.8872 374.618 75.0148C374.149 74.1424 373.915 72.9835 373.915 71.5382V50.7765ZM391.951 59.9757V77.0851H387.244V55.9523H391.736L391.951 59.9757ZM398.416 55.8156L398.377 60.1906C398.09 60.1385 397.778 60.0994 397.439 60.0734C397.114 60.0473 396.788 60.0343 396.463 60.0343C395.655 60.0343 394.946 60.1515 394.334 60.3859C393.722 60.6072 393.208 60.9327 392.791 61.3624C392.387 61.7791 392.075 62.2869 391.853 62.8859C391.632 63.4848 391.502 64.1554 391.463 64.8976L390.388 64.9757C390.388 63.6476 390.519 62.4171 390.779 61.2843C391.04 60.1515 391.43 59.1554 391.951 58.296C392.485 57.4366 393.149 56.7661 393.943 56.2843C394.75 55.8025 395.681 55.5616 396.736 55.5616C397.023 55.5616 397.329 55.5877 397.654 55.6398C397.993 55.6919 398.247 55.7504 398.416 55.8156ZM407.604 55.9523V77.0851H402.878V55.9523H407.604ZM402.565 50.4054C402.565 49.6892 402.799 49.0968 403.268 48.6281C403.75 48.1463 404.414 47.9054 405.26 47.9054C406.094 47.9054 406.751 48.1463 407.233 48.6281C407.715 49.0968 407.956 49.6892 407.956 50.4054C407.956 51.1085 407.715 51.6945 407.233 52.1632C406.751 52.632 406.094 52.8663 405.26 52.8663C404.414 52.8663 403.75 52.632 403.268 52.1632C402.799 51.6945 402.565 51.1085 402.565 50.4054ZM422.593 73.7257C423.361 73.7257 424.052 73.576 424.663 73.2765C425.288 72.964 425.79 72.5343 426.167 71.9874C426.558 71.4406 426.773 70.809 426.812 70.0929H431.246C431.219 71.4601 430.816 72.7036 430.035 73.8234C429.253 74.9432 428.218 75.8351 426.929 76.4991C425.64 77.1502 424.214 77.4757 422.652 77.4757C421.037 77.4757 419.631 77.2023 418.433 76.6554C417.235 76.0955 416.239 75.3273 415.445 74.3507C414.65 73.3741 414.052 72.2478 413.648 70.9718C413.257 69.6958 413.062 68.3286 413.062 66.8702V66.1866C413.062 64.7283 413.257 63.3611 413.648 62.0851C414.052 60.796 414.65 59.6632 415.445 58.6866C416.239 57.7101 417.235 56.9484 418.433 56.4015C419.631 55.8416 421.031 55.5616 422.632 55.5616C424.325 55.5616 425.809 55.9002 427.085 56.5773C428.361 57.2413 429.364 58.1723 430.093 59.3702C430.835 60.5551 431.219 61.9353 431.246 63.5109H426.812C426.773 62.7296 426.578 62.0265 426.226 61.4015C425.887 60.7635 425.406 60.2557 424.781 59.8781C424.169 59.5004 423.433 59.3116 422.574 59.3116C421.623 59.3116 420.835 59.507 420.21 59.8976C419.585 60.2752 419.097 60.796 418.746 61.4601C418.394 62.1111 418.14 62.8468 417.984 63.6671C417.841 64.4744 417.769 65.3142 417.769 66.1866V66.8702C417.769 67.7426 417.841 68.589 417.984 69.4093C418.127 70.2296 418.374 70.9653 418.726 71.6163C419.091 72.2544 419.585 72.7687 420.21 73.1593C420.835 73.5369 421.63 73.7257 422.593 73.7257ZM447.914 71.3624C447.914 70.8937 447.797 70.4705 447.563 70.0929C447.328 69.7023 446.879 69.3507 446.215 69.0382C445.564 68.7257 444.6 68.4392 443.324 68.1788C442.205 67.9314 441.176 67.6385 440.238 67.2999C439.314 66.9484 438.52 66.5252 437.856 66.0304C437.192 65.5356 436.677 64.9497 436.313 64.2726C435.948 63.5955 435.766 62.8142 435.766 61.9288C435.766 61.0695 435.955 60.2557 436.332 59.4874C436.71 58.7192 437.25 58.0421 437.953 57.4562C438.656 56.8702 439.509 56.408 440.512 56.0695C441.528 55.7309 442.66 55.5616 443.91 55.5616C445.681 55.5616 447.198 55.8611 448.461 56.4601C449.737 57.046 450.714 57.8468 451.391 58.8624C452.068 59.865 452.406 60.9978 452.406 62.2609H447.699C447.699 61.701 447.556 61.1801 447.27 60.6984C446.996 60.2036 446.58 59.8064 446.02 59.507C445.46 59.1945 444.757 59.0382 443.91 59.0382C443.103 59.0382 442.433 59.1684 441.899 59.4288C441.378 59.6762 440.987 60.0017 440.727 60.4054C440.479 60.809 440.356 61.2517 440.356 61.7335C440.356 62.0851 440.421 62.4041 440.551 62.6906C440.694 62.964 440.929 63.2179 441.254 63.4523C441.58 63.6736 442.022 63.882 442.582 64.0773C443.155 64.2726 443.871 64.4614 444.731 64.6437C446.345 64.9822 447.732 65.4184 448.891 65.9523C450.063 66.4731 450.961 67.1502 451.586 67.9835C452.211 68.8038 452.524 69.8455 452.524 71.1085C452.524 72.046 452.322 72.9054 451.918 73.6866C451.528 74.4549 450.955 75.1254 450.199 75.6984C449.444 76.2583 448.539 76.6945 447.485 77.007C446.443 77.3195 445.271 77.4757 443.969 77.4757C442.055 77.4757 440.434 77.1372 439.106 76.4601C437.778 75.77 436.768 74.8911 436.078 73.8234C435.401 72.7426 435.063 71.6228 435.063 70.464H439.613C439.666 71.3364 439.906 72.033 440.336 72.5538C440.779 73.0616 441.326 73.4327 441.977 73.6671C442.641 73.8885 443.324 73.9991 444.028 73.9991C444.874 73.9991 445.584 73.8885 446.156 73.6671C446.729 73.4327 447.166 73.1202 447.465 72.7296C447.765 72.326 447.914 71.8702 447.914 71.3624Z" fill="black"/>
<path d="M386.017 130.588C386.01 128.931 384.661 127.594 383.004 127.601C381.348 127.608 380.01 128.957 380.017 130.614L386.017 130.588ZM381.913 370.261C383.09 371.428 384.989 371.419 386.156 370.243L405.167 351.07C406.333 349.894 406.325 347.994 405.149 346.828C403.972 345.661 402.073 345.669 400.906 346.846L384.008 363.888L366.965 346.99C365.789 345.823 363.889 345.831 362.722 347.008C361.556 348.184 361.564 350.084 362.741 351.25L381.913 370.261ZM380.017 130.614L381.026 368.143L387.026 368.118L386.017 130.588L380.017 130.614Z" fill="#826CE1"/>
<rect x="566.229" y="90.5156" width="198.771" height="124.601" rx="19" fill="#E6E2F9" stroke="#B4A6E6" stroke-width="2"/>
<path d="M616.585 138.163V166.601H611.722V138.163H616.585ZM625.511 138.163V142.069H602.874V138.163H625.511ZM633.312 149.491V166.601H628.605V145.468H633.097L633.312 149.491ZM639.777 145.331L639.738 149.706C639.451 149.654 639.139 149.615 638.8 149.589C638.475 149.563 638.149 149.55 637.824 149.55C637.017 149.55 636.307 149.667 635.695 149.901C635.083 150.123 634.569 150.448 634.152 150.878C633.748 151.295 633.436 151.803 633.214 152.401C632.993 153 632.863 153.671 632.824 154.413L631.75 154.491C631.75 153.163 631.88 151.933 632.14 150.8C632.401 149.667 632.791 148.671 633.312 147.812C633.846 146.952 634.51 146.282 635.304 145.8C636.112 145.318 637.043 145.077 638.097 145.077C638.384 145.077 638.69 145.103 639.015 145.155C639.354 145.207 639.608 145.266 639.777 145.331ZM655.137 162.362V152.284C655.137 151.529 655 150.878 654.727 150.331C654.454 149.784 654.037 149.361 653.477 149.062C652.93 148.762 652.24 148.612 651.407 148.612C650.638 148.612 649.974 148.743 649.414 149.003C648.855 149.263 648.418 149.615 648.106 150.058C647.793 150.5 647.637 151.002 647.637 151.562H642.95C642.95 150.728 643.151 149.921 643.555 149.14C643.959 148.359 644.545 147.662 645.313 147.05C646.081 146.438 646.999 145.956 648.067 145.605C649.135 145.253 650.332 145.077 651.661 145.077C653.249 145.077 654.655 145.344 655.879 145.878C657.116 146.412 658.086 147.219 658.789 148.3C659.506 149.368 659.864 150.709 659.864 152.323V161.718C659.864 162.681 659.929 163.547 660.059 164.316C660.202 165.071 660.404 165.728 660.664 166.288V166.601H655.84C655.619 166.093 655.443 165.448 655.313 164.667C655.196 163.873 655.137 163.105 655.137 162.362ZM655.821 153.749L655.86 156.659H652.481C651.608 156.659 650.84 156.744 650.176 156.913C649.512 157.069 648.959 157.304 648.516 157.616C648.073 157.929 647.741 158.306 647.52 158.749C647.299 159.192 647.188 159.693 647.188 160.253C647.188 160.813 647.318 161.327 647.579 161.796C647.839 162.252 648.217 162.61 648.711 162.87C649.219 163.131 649.831 163.261 650.547 163.261C651.511 163.261 652.351 163.066 653.067 162.675C653.796 162.271 654.369 161.783 654.786 161.21C655.202 160.624 655.424 160.071 655.45 159.55L656.973 161.64C656.817 162.174 656.55 162.747 656.172 163.359C655.795 163.97 655.3 164.556 654.688 165.116C654.089 165.663 653.366 166.112 652.52 166.464C651.687 166.816 650.723 166.991 649.629 166.991C648.249 166.991 647.019 166.718 645.938 166.171C644.857 165.611 644.011 164.862 643.399 163.925C642.787 162.974 642.481 161.9 642.481 160.702C642.481 159.582 642.689 158.593 643.106 157.734C643.536 156.861 644.161 156.132 644.981 155.546C645.814 154.96 646.83 154.517 648.028 154.218C649.226 153.905 650.593 153.749 652.129 153.749H655.821ZM674.618 163.241C675.387 163.241 676.077 163.092 676.689 162.792C677.314 162.48 677.815 162.05 678.193 161.503C678.583 160.956 678.798 160.325 678.837 159.609H683.271C683.245 160.976 682.841 162.219 682.06 163.339C681.279 164.459 680.243 165.351 678.954 166.015C677.665 166.666 676.239 166.991 674.677 166.991C673.062 166.991 671.656 166.718 670.458 166.171C669.26 165.611 668.264 164.843 667.47 163.866C666.676 162.89 666.077 161.763 665.673 160.487C665.282 159.211 665.087 157.844 665.087 156.386V155.702C665.087 154.244 665.282 152.877 665.673 151.601C666.077 150.312 666.676 149.179 667.47 148.202C668.264 147.226 669.26 146.464 670.458 145.917C671.656 145.357 673.056 145.077 674.657 145.077C676.35 145.077 677.835 145.416 679.111 146.093C680.387 146.757 681.389 147.688 682.118 148.886C682.861 150.071 683.245 151.451 683.271 153.026H678.837C678.798 152.245 678.603 151.542 678.251 150.917C677.913 150.279 677.431 149.771 676.806 149.394C676.194 149.016 675.458 148.827 674.599 148.827C673.648 148.827 672.861 149.023 672.236 149.413C671.611 149.791 671.122 150.312 670.771 150.976C670.419 151.627 670.165 152.362 670.009 153.183C669.866 153.99 669.794 154.83 669.794 155.702V156.386C669.794 157.258 669.866 158.105 670.009 158.925C670.152 159.745 670.4 160.481 670.751 161.132C671.116 161.77 671.611 162.284 672.236 162.675C672.861 163.053 673.655 163.241 674.618 163.241ZM697.4 166.991C695.838 166.991 694.425 166.737 693.162 166.23C691.912 165.709 690.844 164.986 689.959 164.062C689.087 163.137 688.416 162.05 687.947 160.8C687.479 159.55 687.244 158.202 687.244 156.757V155.976C687.244 154.322 687.485 152.825 687.967 151.484C688.449 150.142 689.119 148.997 689.979 148.046C690.838 147.082 691.854 146.347 693.025 145.839C694.197 145.331 695.467 145.077 696.834 145.077C698.344 145.077 699.666 145.331 700.799 145.839C701.932 146.347 702.869 147.063 703.611 147.987C704.367 148.899 704.926 149.986 705.291 151.249C705.669 152.512 705.857 153.905 705.857 155.429V157.441H689.529V154.062H701.209V153.691C701.183 152.844 701.014 152.05 700.701 151.308C700.402 150.566 699.939 149.967 699.314 149.511C698.689 149.055 697.856 148.827 696.814 148.827C696.033 148.827 695.337 148.997 694.725 149.335C694.126 149.661 693.624 150.136 693.221 150.761C692.817 151.386 692.505 152.141 692.283 153.026C692.075 153.899 691.971 154.882 691.971 155.976V156.757C691.971 157.681 692.094 158.541 692.342 159.335C692.602 160.116 692.98 160.8 693.475 161.386C693.969 161.972 694.568 162.434 695.272 162.773C695.975 163.098 696.775 163.261 697.674 163.261C698.807 163.261 699.816 163.033 700.701 162.577C701.587 162.122 702.355 161.477 703.006 160.644L705.486 163.046C705.031 163.71 704.438 164.348 703.709 164.96C702.98 165.559 702.088 166.047 701.033 166.425C699.992 166.803 698.781 166.991 697.4 166.991ZM722.585 160.878C722.585 160.409 722.468 159.986 722.233 159.609C721.999 159.218 721.55 158.866 720.886 158.554C720.235 158.241 719.271 157.955 717.995 157.694C716.875 157.447 715.847 157.154 714.909 156.816C713.985 156.464 713.19 156.041 712.526 155.546C711.862 155.051 711.348 154.465 710.983 153.788C710.619 153.111 710.436 152.33 710.436 151.444C710.436 150.585 710.625 149.771 711.003 149.003C711.38 148.235 711.921 147.558 712.624 146.972C713.327 146.386 714.18 145.924 715.182 145.585C716.198 145.247 717.331 145.077 718.581 145.077C720.352 145.077 721.869 145.377 723.132 145.976C724.408 146.562 725.384 147.362 726.061 148.378C726.738 149.381 727.077 150.513 727.077 151.776H722.37C722.37 151.217 722.227 150.696 721.94 150.214C721.667 149.719 721.25 149.322 720.69 149.023C720.13 148.71 719.427 148.554 718.581 148.554C717.774 148.554 717.103 148.684 716.569 148.944C716.048 149.192 715.658 149.517 715.397 149.921C715.15 150.325 715.026 150.767 715.026 151.249C715.026 151.601 715.091 151.92 715.222 152.206C715.365 152.48 715.599 152.734 715.925 152.968C716.25 153.189 716.693 153.398 717.253 153.593C717.826 153.788 718.542 153.977 719.401 154.159C721.016 154.498 722.402 154.934 723.561 155.468C724.733 155.989 725.632 156.666 726.257 157.499C726.882 158.319 727.194 159.361 727.194 160.624C727.194 161.562 726.992 162.421 726.589 163.202C726.198 163.97 725.625 164.641 724.87 165.214C724.115 165.774 723.21 166.21 722.155 166.523C721.113 166.835 719.942 166.991 718.639 166.991C716.725 166.991 715.104 166.653 713.776 165.976C712.448 165.286 711.439 164.407 710.749 163.339C710.072 162.258 709.733 161.138 709.733 159.98H714.284C714.336 160.852 714.577 161.549 715.007 162.069C715.449 162.577 715.996 162.948 716.647 163.183C717.311 163.404 717.995 163.515 718.698 163.515C719.544 163.515 720.254 163.404 720.827 163.183C721.4 162.948 721.836 162.636 722.136 162.245C722.435 161.842 722.585 161.386 722.585 160.878Z" fill="black"/>
<path d="M668.614 220.117C668.614 218.46 667.271 217.117 665.614 217.117C663.957 217.117 662.614 218.46 662.614 220.117H668.614ZM517.434 369.044C518.606 370.215 520.505 370.215 521.677 369.044L540.769 349.952C541.94 348.78 541.94 346.881 540.769 345.709C539.597 344.538 537.698 344.538 536.526 345.709L519.556 362.68L502.585 345.709C501.414 344.538 499.514 344.538 498.342 345.709C497.171 346.881 497.171 348.78 498.342 349.952L517.434 369.044ZM662.614 220.117V291.001H668.614V220.117H662.614ZM641.614 312.001H543.556V318.001H641.614V312.001ZM516.556 339.001V366.923H522.556V339.001H516.556ZM543.556 312.001C528.644 312.001 516.556 324.089 516.556 339.001H522.556C522.556 327.403 531.958 318.001 543.556 318.001V312.001ZM662.614 291.001C662.614 302.599 653.212 312.001 641.614 312.001V318.001C656.526 318.001 668.614 305.913 668.614 291.001H662.614Z" fill="#826CE1"/>
<path d="M206.5 528.662V600H194.732V542.627L177.301 548.535V538.818L205.084 528.662H206.5ZM263.064 573.486H244.559V563.77H263.064C266.287 563.77 268.891 563.249 270.877 562.207C272.863 561.165 274.311 559.733 275.223 557.91C276.167 556.055 276.639 553.939 276.639 551.562C276.639 549.316 276.167 547.217 275.223 545.264C274.311 543.278 272.863 541.683 270.877 540.479C268.891 539.274 266.287 538.672 263.064 538.672H248.318V600H236.062V528.906H263.064C268.566 528.906 273.237 529.883 277.078 531.836C280.952 533.757 283.898 536.426 285.916 539.844C287.934 543.229 288.943 547.103 288.943 551.465C288.943 556.055 287.934 559.993 285.916 563.281C283.898 566.569 280.952 569.092 277.078 570.85C273.237 572.607 268.566 573.486 263.064 573.486ZM329.59 567.871H311.475L311.377 558.936H327.197C329.867 558.936 332.129 558.545 333.984 557.764C335.872 556.95 337.305 555.794 338.281 554.297C339.258 552.767 339.746 550.928 339.746 548.779C339.746 546.403 339.29 544.466 338.379 542.969C337.467 541.471 336.068 540.381 334.18 539.697C332.324 539.014 329.948 538.672 327.051 538.672H315.186V600H302.93V528.906H327.051C330.957 528.906 334.44 529.281 337.5 530.029C340.592 530.778 343.213 531.95 345.361 533.545C347.542 535.107 349.186 537.093 350.293 539.502C351.432 541.911 352.002 544.775 352.002 548.096C352.002 551.025 351.302 553.711 349.902 556.152C348.503 558.561 346.436 560.531 343.701 562.061C340.967 563.59 337.565 564.502 333.496 564.795L329.59 567.871ZM329.053 600H307.617L313.135 590.283H329.053C331.82 590.283 334.131 589.827 335.986 588.916C337.842 587.972 339.225 586.686 340.137 585.059C341.081 583.398 341.553 581.462 341.553 579.248C341.553 576.937 341.146 574.935 340.332 573.242C339.518 571.517 338.232 570.199 336.475 569.287C334.717 568.343 332.422 567.871 329.59 567.871H315.82L315.918 558.936H333.838L336.621 562.305C340.527 562.435 343.734 563.298 346.24 564.893C348.779 566.488 350.667 568.555 351.904 571.094C353.141 573.633 353.76 576.367 353.76 579.297C353.76 583.822 352.767 587.614 350.781 590.674C348.828 593.734 346.012 596.061 342.334 597.656C338.656 599.219 334.229 600 329.053 600ZM398.85 528.906L371.164 606.104H361.936L389.67 528.906H398.85ZM442.23 589.062V525H454.047V600H443.354L442.23 589.062ZM407.855 574.17V573.145C407.855 569.141 408.327 565.495 409.271 562.207C410.215 558.887 411.583 556.038 413.373 553.662C415.163 551.253 417.344 549.414 419.916 548.145C422.488 546.842 425.385 546.191 428.607 546.191C431.798 546.191 434.597 546.81 437.006 548.047C439.415 549.284 441.465 551.058 443.158 553.369C444.851 555.648 446.202 558.382 447.211 561.572C448.22 564.73 448.936 568.245 449.359 572.119V575.391C448.936 579.167 448.22 582.617 447.211 585.742C446.202 588.867 444.851 591.569 443.158 593.848C441.465 596.126 439.398 597.884 436.957 599.121C434.548 600.358 431.732 600.977 428.51 600.977C425.32 600.977 422.439 600.309 419.867 598.975C417.328 597.64 415.163 595.768 413.373 593.359C411.583 590.951 410.215 588.118 409.271 584.863C408.327 581.576 407.855 578.011 407.855 574.17ZM419.623 573.145V574.17C419.623 576.579 419.835 578.825 420.258 580.908C420.714 582.992 421.413 584.831 422.357 586.426C423.301 587.988 424.522 589.225 426.02 590.137C427.549 591.016 429.372 591.455 431.488 591.455C434.158 591.455 436.355 590.869 438.08 589.697C439.805 588.525 441.156 586.947 442.133 584.961C443.142 582.943 443.826 580.697 444.184 578.223V569.385C443.988 567.464 443.581 565.674 442.963 564.014C442.377 562.354 441.579 560.905 440.57 559.668C439.561 558.398 438.308 557.422 436.811 556.738C435.346 556.022 433.604 555.664 431.586 555.664C429.438 555.664 427.615 556.12 426.117 557.031C424.62 557.943 423.383 559.196 422.406 560.791C421.462 562.386 420.762 564.242 420.307 566.357C419.851 568.473 419.623 570.736 419.623 573.145ZM499.137 589.404V564.209C499.137 562.321 498.795 560.693 498.111 559.326C497.428 557.959 496.386 556.901 494.986 556.152C493.619 555.404 491.894 555.029 489.811 555.029C487.89 555.029 486.23 555.355 484.83 556.006C483.43 556.657 482.34 557.536 481.559 558.643C480.777 559.749 480.387 561.003 480.387 562.402H468.668C468.668 560.319 469.173 558.301 470.182 556.348C471.191 554.395 472.656 552.653 474.576 551.123C476.497 549.593 478.792 548.389 481.461 547.51C484.13 546.631 487.125 546.191 490.445 546.191C494.417 546.191 497.932 546.859 500.992 548.193C504.085 549.528 506.51 551.546 508.268 554.248C510.058 556.917 510.953 560.27 510.953 564.307V587.793C510.953 590.202 511.116 592.367 511.441 594.287C511.799 596.175 512.304 597.819 512.955 599.219V600H500.895C500.341 598.73 499.902 597.119 499.576 595.166C499.283 593.18 499.137 591.26 499.137 589.404ZM500.846 567.871L500.943 575.146H492.496C490.315 575.146 488.395 575.358 486.734 575.781C485.074 576.172 483.691 576.758 482.584 577.539C481.477 578.32 480.647 579.264 480.094 580.371C479.54 581.478 479.264 582.731 479.264 584.131C479.264 585.531 479.589 586.816 480.24 587.988C480.891 589.128 481.835 590.023 483.072 590.674C484.342 591.325 485.872 591.65 487.662 591.65C490.071 591.65 492.171 591.162 493.961 590.186C495.784 589.176 497.216 587.956 498.258 586.523C499.299 585.059 499.853 583.675 499.918 582.373L503.727 587.598C503.336 588.932 502.669 590.365 501.725 591.895C500.781 593.424 499.544 594.889 498.014 596.289C496.516 597.656 494.71 598.779 492.594 599.658C490.51 600.537 488.102 600.977 485.367 600.977C481.917 600.977 478.84 600.293 476.139 598.926C473.437 597.526 471.321 595.654 469.791 593.311C468.261 590.934 467.496 588.249 467.496 585.254C467.496 582.454 468.017 579.98 469.059 577.832C470.133 575.651 471.695 573.828 473.746 572.363C475.829 570.898 478.368 569.792 481.363 569.043C484.358 568.262 487.776 567.871 491.617 567.871H500.846ZM540.809 594.238L555.164 547.168H567.762L546.57 608.057C546.082 609.359 545.447 610.775 544.666 612.305C543.885 613.835 542.859 615.283 541.59 616.65C540.353 618.05 538.807 619.173 536.951 620.02C535.096 620.898 532.85 621.338 530.213 621.338C529.171 621.338 528.162 621.24 527.186 621.045C526.242 620.882 525.346 620.703 524.5 620.508L524.451 611.523C524.777 611.556 525.167 611.589 525.623 611.621C526.111 611.654 526.502 611.67 526.795 611.67C528.748 611.67 530.376 611.426 531.678 610.938C532.98 610.482 534.038 609.733 534.852 608.691C535.698 607.65 536.414 606.25 537 604.492L540.809 594.238ZM532.703 547.168L545.252 586.719L547.352 599.121L539.197 601.221L520.008 547.168H532.703Z" fill="black"/>
<g filter="url(#filter2_d_115_231)">
<path d="M222.661 956.902L295.066 920.699V1017.05L220.909 1055L222.661 956.902Z" fill="#9B89E7"/>
<path d="M145 920.699L222.661 956.902L220.909 1055L145 1017.05L145 920.699Z" fill="#9B89E7"/>
<path d="M222.661 888L295.066 920.699L222.661 956.902L145 920.699L222.661 888Z" fill="#9B89E7"/>
<path d="M222.968 1051.7L224.639 958.149L293.066 923.935V1015.82L222.968 1051.7ZM147 1015.81V923.838L220.638 958.165L218.966 1051.79L147 1015.81ZM290.411 920.791L222.63 954.681L149.933 920.792L222.633 890.182L290.411 920.791Z" stroke="black" stroke-opacity="0.8" stroke-width="4"/>
</g>
<g filter="url(#filter3_d_115_231)">
<path d="M653.504 940.259L696.86 918.58V976.273L652.454 999L653.504 940.259Z" fill="#B4A6E6" fill-opacity="0.63" shape-rendering="crispEdges"/>
<path d="M607 918.58L653.504 940.259L652.454 999L607 976.273L607 918.58Z" fill="#B4A6E6" fill-opacity="0.63" shape-rendering="crispEdges"/>
<path d="M653.504 899L696.86 918.58L653.504 940.259L607 918.58L653.504 899Z" fill="#B4A6E6" fill-opacity="0.63" shape-rendering="crispEdges"/>
<path d="M654.514 995.699L655.482 941.506L694.86 921.816V975.049L654.514 995.699ZM609 975.037V921.719L651.481 941.522L650.511 995.792L609 975.037ZM692.204 918.672L653.473 938.038L611.933 918.673L653.475 901.182L692.204 918.672Z" stroke="black" stroke-opacity="0.8" stroke-width="4" shape-rendering="crispEdges"/>
</g>
<g filter="url(#filter4_d_115_231)">
<path d="M550.661 937.902L623.066 901.699V998.045L548.909 1036L550.661 937.902Z" fill="#9B89E7"/>
<path d="M473 901.699L550.661 937.902L548.909 1036L473 998.045L473 901.699Z" fill="#9B89E7"/>
<path d="M550.661 869L623.066 901.699L550.661 937.902L473 901.699L550.661 869Z" fill="#9B89E7"/>
<path d="M550.968 1032.7L552.639 939.149L621.066 904.935V996.822L550.968 1032.7ZM475 996.809V904.838L548.638 939.165L546.966 1032.79L475 996.809ZM618.411 901.791L550.63 935.681L477.933 901.792L550.633 871.182L618.411 901.791Z" stroke="black" stroke-opacity="0.8" stroke-width="4"/>
</g>
<g filter="url(#filter5_d_115_231)">
<path d="M386.027 929.603L497 874.116V1021.78L383.342 1079.95L386.027 929.603Z" fill="#826CE1"/>
<path d="M267 874.116L386.027 929.603L383.342 1079.95L267 1021.78L267 874.116Z" fill="#826CE1"/>
<path d="M386.027 824L497 874.116L386.027 929.603L267 874.116L386.027 824Z" fill="#826CE1"/>
<path d="M385.401 1076.65L388.005 930.85L495 877.352V1020.56L385.401 1076.65ZM269 1020.55V877.255L384.004 930.866L381.399 1076.75L269 1020.55ZM492.344 874.208L385.997 927.382L271.933 874.209L385.999 826.182L492.344 874.208Z" stroke="black" stroke-opacity="0.8" stroke-width="4"/>
</g>
<path d="M293.506 785.899V810H286.681V779.357H293.109L293.506 785.899ZM292.288 793.546L290.079 793.518C290.098 791.346 290.4 789.354 290.985 787.542C291.59 785.729 292.42 784.172 293.478 782.869C294.554 781.566 295.838 780.566 297.329 779.867C298.821 779.15 300.482 778.791 302.313 778.791C303.786 778.791 305.117 778.999 306.307 779.414C307.515 779.811 308.544 780.462 309.394 781.368C310.262 782.274 310.923 783.454 311.376 784.908C311.829 786.343 312.056 788.108 312.056 790.204V810H305.202V790.176C305.202 788.703 304.985 787.542 304.551 786.692C304.135 785.824 303.522 785.21 302.71 784.852C301.917 784.474 300.926 784.285 299.736 784.285C298.566 784.285 297.518 784.531 296.593 785.021C295.668 785.512 294.884 786.183 294.242 787.032C293.619 787.882 293.138 788.864 292.798 789.978C292.458 791.091 292.288 792.281 292.288 793.546ZM340.234 785.899V810H333.409V779.357H339.838L340.234 785.899ZM339.017 793.546L336.808 793.518C336.826 791.346 337.129 789.354 337.714 787.542C338.318 785.729 339.149 784.172 340.206 782.869C341.282 781.566 342.566 780.566 344.058 779.867C345.549 779.15 347.211 778.791 349.042 778.791C350.515 778.791 351.846 778.999 353.035 779.414C354.243 779.811 355.272 780.462 356.122 781.368C356.991 782.274 357.651 783.454 358.104 784.908C358.558 786.343 358.784 788.108 358.784 790.204V810H351.931V790.176C351.931 788.703 351.714 787.542 351.279 786.692C350.864 785.824 350.25 785.21 349.438 784.852C348.646 784.474 347.654 784.285 346.465 784.285C345.294 784.285 344.246 784.531 343.321 785.021C342.396 785.512 341.613 786.183 340.971 787.032C340.348 787.882 339.866 788.864 339.526 789.978C339.187 791.091 339.017 792.281 339.017 793.546ZM364.448 795.019V794.367C364.448 792.158 364.769 790.11 365.411 788.222C366.053 786.315 366.978 784.663 368.187 783.266C369.414 781.85 370.905 780.755 372.661 779.98C374.436 779.188 376.437 778.791 378.665 778.791C380.912 778.791 382.913 779.188 384.669 779.98C386.444 780.755 387.945 781.85 389.172 783.266C390.399 784.663 391.334 786.315 391.976 788.222C392.618 790.11 392.938 792.158 392.938 794.367V795.019C392.938 797.228 392.618 799.276 391.976 801.164C391.334 803.052 390.399 804.704 389.172 806.12C387.945 807.517 386.453 808.612 384.697 809.405C382.941 810.179 380.95 810.566 378.722 810.566C376.475 810.566 374.464 810.179 372.689 809.405C370.934 808.612 369.442 807.517 368.215 806.12C366.988 804.704 366.053 803.052 365.411 801.164C364.769 799.276 364.448 797.228 364.448 795.019ZM371.273 794.367V795.019C371.273 796.397 371.415 797.7 371.698 798.927C371.981 800.154 372.425 801.23 373.029 802.155C373.633 803.08 374.408 803.807 375.352 804.336C376.296 804.865 377.419 805.129 378.722 805.129C379.987 805.129 381.082 804.865 382.007 804.336C382.951 803.807 383.725 803.08 384.329 802.155C384.933 801.23 385.377 800.154 385.66 798.927C385.962 797.7 386.113 796.397 386.113 795.019V794.367C386.113 793.008 385.962 791.724 385.66 790.516C385.377 789.288 384.924 788.203 384.301 787.259C383.697 786.315 382.923 785.578 381.979 785.05C381.053 784.502 379.949 784.229 378.665 784.229C377.381 784.229 376.267 784.502 375.323 785.05C374.398 785.578 373.633 786.315 373.029 787.259C372.425 788.203 371.981 789.288 371.698 790.516C371.415 791.724 371.273 793.008 371.273 794.367ZM417.351 803.656V766.5H424.204V810H418.002L417.351 803.656ZM397.413 795.019V794.424C397.413 792.102 397.687 789.987 398.234 788.08C398.782 786.154 399.575 784.502 400.613 783.124C401.652 781.727 402.917 780.66 404.408 779.924C405.9 779.169 407.58 778.791 409.449 778.791C411.299 778.791 412.923 779.15 414.32 779.867C415.717 780.585 416.907 781.614 417.889 782.954C418.87 784.276 419.654 785.862 420.239 787.712C420.825 789.543 421.24 791.582 421.485 793.829V795.727C421.24 797.917 420.825 799.918 420.239 801.73C419.654 803.543 418.87 805.11 417.889 806.432C416.907 807.753 415.708 808.773 414.292 809.49C412.895 810.208 411.262 810.566 409.393 810.566C407.542 810.566 405.871 810.179 404.38 809.405C402.907 808.631 401.652 807.546 400.613 806.148C399.575 804.751 398.782 803.109 398.234 801.221C397.687 799.314 397.413 797.246 397.413 795.019ZM404.238 794.424V795.019C404.238 796.416 404.361 797.718 404.606 798.927C404.871 800.135 405.277 801.202 405.824 802.127C406.372 803.033 407.08 803.751 407.948 804.279C408.836 804.789 409.893 805.044 411.12 805.044C412.668 805.044 413.943 804.704 414.943 804.024C415.944 803.345 416.728 802.429 417.294 801.277C417.879 800.107 418.276 798.804 418.483 797.369V792.243C418.37 791.129 418.134 790.091 417.775 789.128C417.436 788.165 416.973 787.325 416.388 786.607C415.802 785.871 415.076 785.305 414.207 784.908C413.357 784.493 412.347 784.285 411.177 784.285C409.931 784.285 408.873 784.549 408.005 785.078C407.136 785.607 406.419 786.334 405.853 787.259C405.305 788.184 404.899 789.26 404.635 790.487C404.37 791.715 404.238 793.027 404.238 794.424ZM444.85 810.566C442.584 810.566 440.535 810.198 438.704 809.462C436.892 808.707 435.343 807.659 434.06 806.318C432.795 804.978 431.822 803.401 431.143 801.589C430.463 799.776 430.123 797.822 430.123 795.727V794.594C430.123 792.196 430.472 790.025 431.171 788.08C431.869 786.135 432.842 784.474 434.088 783.096C435.334 781.699 436.807 780.632 438.506 779.896C440.205 779.159 442.046 778.791 444.028 778.791C446.218 778.791 448.135 779.159 449.777 779.896C451.42 780.632 452.779 781.67 453.855 783.011C454.951 784.332 455.762 785.909 456.291 787.74C456.839 789.572 457.112 791.592 457.112 793.801V796.718H433.437V791.818H450.372V791.28C450.334 790.053 450.089 788.901 449.636 787.825C449.201 786.749 448.531 785.881 447.625 785.22C446.719 784.559 445.51 784.229 444 784.229C442.867 784.229 441.857 784.474 440.97 784.965C440.101 785.437 439.374 786.126 438.789 787.032C438.204 787.938 437.751 789.034 437.43 790.317C437.128 791.582 436.977 793.008 436.977 794.594V795.727C436.977 797.067 437.156 798.313 437.515 799.465C437.892 800.598 438.44 801.589 439.157 802.438C439.875 803.288 440.743 803.958 441.763 804.449C442.782 804.921 443.943 805.157 445.246 805.157C446.889 805.157 448.352 804.827 449.636 804.166C450.92 803.505 452.034 802.571 452.978 801.362L456.574 804.846C455.913 805.809 455.054 806.734 453.997 807.621C452.94 808.49 451.646 809.198 450.117 809.745C448.607 810.293 446.851 810.566 444.85 810.566ZM479.627 801.702C479.627 801.022 479.457 800.409 479.117 799.861C478.777 799.295 478.126 798.785 477.163 798.332C476.219 797.879 474.822 797.464 472.972 797.086C471.348 796.727 469.856 796.302 468.497 795.812C467.157 795.302 466.005 794.688 465.042 793.971C464.079 793.253 463.333 792.404 462.805 791.422C462.276 790.44 462.012 789.307 462.012 788.023C462.012 786.777 462.285 785.597 462.833 784.483C463.381 783.369 464.164 782.388 465.184 781.538C466.203 780.688 467.44 780.018 468.894 779.527C470.366 779.036 472.009 778.791 473.821 778.791C476.389 778.791 478.589 779.225 480.42 780.094C482.27 780.943 483.686 782.104 484.668 783.577C485.65 785.031 486.141 786.674 486.141 788.505H479.315C479.315 787.693 479.108 786.938 478.692 786.239C478.296 785.522 477.692 784.946 476.88 784.512C476.068 784.059 475.049 783.832 473.821 783.832C472.651 783.832 471.678 784.021 470.904 784.398C470.149 784.757 469.583 785.229 469.205 785.814C468.846 786.4 468.667 787.042 468.667 787.74C468.667 788.25 468.761 788.713 468.95 789.128C469.158 789.524 469.498 789.893 469.97 790.232C470.442 790.553 471.084 790.855 471.896 791.139C472.726 791.422 473.765 791.696 475.011 791.96C477.352 792.451 479.363 793.083 481.043 793.857C482.742 794.613 484.045 795.594 484.951 796.803C485.857 797.992 486.311 799.503 486.311 801.334C486.311 802.693 486.018 803.939 485.433 805.072C484.866 806.186 484.035 807.159 482.94 807.989C481.845 808.801 480.533 809.434 479.004 809.887C477.493 810.34 475.794 810.566 473.906 810.566C471.131 810.566 468.78 810.076 466.854 809.094C464.929 808.093 463.465 806.819 462.465 805.271C461.483 803.703 460.992 802.08 460.992 800.399H467.591C467.666 801.664 468.016 802.674 468.639 803.43C469.281 804.166 470.074 804.704 471.018 805.044C471.98 805.365 472.972 805.525 473.991 805.525C475.218 805.525 476.247 805.365 477.078 805.044C477.909 804.704 478.541 804.251 478.976 803.685C479.41 803.099 479.627 802.438 479.627 801.702Z" fill="#160F29"/>
<defs>
<filter id="filter0_d_115_231" x="58" y="899" width="107.86" height="120" filterUnits="userSpaceOnUse" color-interpolation-filters="sRGB">
<feFlood flood-opacity="0" result="BackgroundImageFix"/>
<feColorMatrix in="SourceAlpha" type="matrix" values="0 0 0 0 0 0 0 0 0 0 0 0 0 0 0 0 0 0 127 0" result="hardAlpha"/>
<feOffset dy="11"/>
<feGaussianBlur stdDeviation="4.5"/>
<feComposite in2="hardAlpha" operator="out"/>
<feColorMatrix type="matrix" values="0 0 0 0 0.0862745 0 0 0 0 0.0588235 0 0 0 0 0.160784 0 0 0 0.2 0"/>
<feBlend mode="normal" in2="BackgroundImageFix" result="effect1_dropShadow_115_231"/>
<feBlend mode="normal" in="SourceGraphic" in2="effect1_dropShadow_115_231" result="shape"/>
</filter>
<filter id="filter1_d_115_231" x="66" y="325.439" width="633.526" height="373.931" filterUnits="userSpaceOnUse" color-interpolation-filters="sRGB">
<feFlood flood-opacity="0" result="BackgroundImageFix"/>
<feColorMatrix in="SourceAlpha" type="matrix" values="0 0 0 0 0 0 0 0 0 0 0 0 0 0 0 0 0 0 127 0" result="hardAlpha"/>
<feOffset dy="6"/>
<feGaussianBlur stdDeviation="11"/>
<feComposite in2="hardAlpha" operator="out"/>
<feColorMatrix type="matrix" values="0 0 0 0 0 0 0 0 0 0 0 0 0 0 0 0 0 0 0.25 0"/>
<feBlend mode="normal" in2="BackgroundImageFix" result="effect1_dropShadow_115_231"/>
<feBlend mode="normal" in="SourceGraphic" in2="effect1_dropShadow_115_231" result="shape"/>
</filter>
<filter id="filter2_d_115_231" x="136" y="888" width="168.066" height="187" filterUnits="userSpaceOnUse" color-interpolation-filters="sRGB">
<feFlood flood-opacity="0" result="BackgroundImageFix"/>
<feColorMatrix in="SourceAlpha" type="matrix" values="0 0 0 0 0 0 0 0 0 0 0 0 0 0 0 0 0 0 127 0" result="hardAlpha"/>
<feOffset dy="11"/>
<feGaussianBlur stdDeviation="4.5"/>
<feComposite in2="hardAlpha" operator="out"/>
<feColorMatrix type="matrix" values="0 0 0 0 0.0862745 0 0 0 0 0.0588235 0 0 0 0 0.160784 0 0 0 0.2 0"/>
<feBlend mode="normal" in2="BackgroundImageFix" result="effect1_dropShadow_115_231"/>
<feBlend mode="normal" in="SourceGraphic" in2="effect1_dropShadow_115_231" result="shape"/>
</filter>
<filter id="filter3_d_115_231" x="598" y="899" width="107.86" height="120" filterUnits="userSpaceOnUse" color-interpolation-filters="sRGB">
<feFlood flood-opacity="0" result="BackgroundImageFix"/>
<feColorMatrix in="SourceAlpha" type="matrix" values="0 0 0 0 0 0 0 0 0 0 0 0 0 0 0 0 0 0 127 0" result="hardAlpha"/>
<feOffset dy="11"/>
<feGaussianBlur stdDeviation="4.5"/>
<feComposite in2="hardAlpha" operator="out"/>
<feColorMatrix type="matrix" values="0 0 0 0 0.0862745 0 0 0 0 0.0588235 0 0 0 0 0.160784 0 0 0 0.2 0"/>
<feBlend mode="normal" in2="BackgroundImageFix" result="effect1_dropShadow_115_231"/>
<feBlend mode="normal" in="SourceGraphic" in2="effect1_dropShadow_115_231" result="shape"/>
</filter>
<filter id="filter4_d_115_231" x="464" y="869" width="168.066" height="187" filterUnits="userSpaceOnUse" color-interpolation-filters="sRGB">
<feFlood flood-opacity="0" result="BackgroundImageFix"/>
<feColorMatrix in="SourceAlpha" type="matrix" values="0 0 0 0 0 0 0 0 0 0 0 0 0 0 0 0 0 0 127 0" result="hardAlpha"/>
<feOffset dy="11"/>
<feGaussianBlur stdDeviation="4.5"/>
<feComposite in2="hardAlpha" operator="out"/>
<feColorMatrix type="matrix" values="0 0 0 0 0.0862745 0 0 0 0 0.0588235 0 0 0 0 0.160784 0 0 0 0.2 0"/>
<feBlend mode="normal" in2="BackgroundImageFix" result="effect1_dropShadow_115_231"/>
<feBlend mode="normal" in="SourceGraphic" in2="effect1_dropShadow_115_231" result="shape"/>
</filter>
<filter id="filter5_d_115_231" x="258" y="824" width="248" height="275.953" filterUnits="userSpaceOnUse" color-interpolation-filters="sRGB">
<feFlood flood-opacity="0" result="BackgroundImageFix"/>
<feColorMatrix in="SourceAlpha" type="matrix" values="0 0 0 0 0 0 0 0 0 0 0 0 0 0 0 0 0 0 127 0" result="hardAlpha"/>
<feOffset dy="11"/>
<feGaussianBlur stdDeviation="4.5"/>
<feComposite in2="hardAlpha" operator="out"/>
<feColorMatrix type="matrix" values="0 0 0 0 0.0862745 0 0 0 0 0.0588235 0 0 0 0 0.160784 0 0 0 0.2 0"/>
<feBlend mode="normal" in2="BackgroundImageFix" result="effect1_dropShadow_115_231"/>
<feBlend mode="normal" in="SourceGraphic" in2="effect1_dropShadow_115_231" result="shape"/>
</filter>
<radialGradient id="paint0_radial_115_231" cx="0" cy="0" r="1" gradientUnits="userSpaceOnUse" gradientTransform="translate(396.5 591) rotate(90) scale(591 377.5)">
<stop stop-color="#F4B34D" stop-opacity="0.68"/>
<stop offset="0.94" stop-color="#D9D9D9" stop-opacity="0"/>
</radialGradient>
<linearGradient id="paint1_linear_115_231" x1="383.639" y1="461.899" x2="383.639" y2="978.546" gradientUnits="userSpaceOnUse">
<stop stop-color="#D2860D"/>
<stop offset="1" stop-color="#FCEDD5" stop-opacity="0"/>
</linearGradient>
</defs>
</svg>
