<svg width="40" height="40" viewBox="0 0 40 40" fill="none" xmlns="http://www.w3.org/2000/svg">
<circle cx="20" cy="20" r="20" fill="#6347D9"/>
<path d="M21.5969 16.8858C21.779 16.6401 21.9305 16.4212 22.0964 16.2141C22.4236 15.8054 22.8323 15.4912 23.2862 15.2366C24.0028 14.8345 24.7736 14.6386 25.5964 14.6191C26.4375 14.5989 27.2595 14.6827 28.0565 14.9661C28.9476 15.283 29.6308 15.8489 30.1121 16.6612C30.4975 17.3112 30.7043 18.0241 30.8201 18.7626C30.8915 19.2185 30.958 19.6808 30.9629 20.1408C30.9868 22.3214 30.9897 24.5023 30.9983 26.683C31.0012 27.3734 30.9986 28.0641 30.9986 28.7545V28.9457H30.8045C29.481 28.9457 28.1576 28.9463 26.8341 28.9451C26.6034 28.9451 26.6068 28.9849 26.6068 28.7234C26.6065 26.3065 26.6083 23.89 26.6042 21.4732C26.6031 20.8309 26.5432 20.1938 26.2845 19.5958C25.9887 18.9118 25.4556 18.5492 24.7177 18.4668C24.2839 18.4184 23.8602 18.453 23.444 18.5742C22.7303 18.7822 22.2896 19.2718 22.0451 19.9564C21.8801 20.4184 21.7913 20.8969 21.7888 21.3859C21.7758 23.8304 21.7695 26.2749 21.7605 28.7193C21.7597 28.9757 21.7862 28.9451 21.5416 28.9454C20.223 28.9463 18.9045 28.944 17.5856 28.9489C17.4468 28.9495 17.3955 28.9224 17.3955 28.7691C17.3998 24.2235 17.399 19.6776 17.399 15.132C17.399 14.9503 17.405 14.944 17.5839 14.944C18.8546 14.9437 20.1251 14.9437 21.3959 14.944C21.5851 14.944 21.5874 14.9471 21.5877 15.1381C21.5877 15.6608 21.5877 16.1833 21.588 16.7061C21.588 16.7565 21.5923 16.8066 21.5958 16.8861L21.5969 16.8858Z" fill="white"/>
<path d="M10.3457 28.9455C10.3457 28.8724 10.3457 28.8162 10.3457 28.7603C10.3457 24.2193 10.3457 19.6783 10.3457 15.1373C10.3457 14.9441 10.3457 14.9435 10.5442 14.9435C11.8627 14.9435 13.1816 14.9435 14.5002 14.9435C14.7078 14.9435 14.7084 14.9441 14.7084 15.1517C14.7084 19.6832 14.7084 24.2147 14.7084 28.7462C14.7084 28.9455 14.7078 28.9458 14.516 28.9458C13.1876 28.9458 11.8596 28.9458 10.5312 28.9458H10.3457V28.9455Z" fill="white"/>
<path d="M10.0002 10.5219C9.98291 9.15294 11.1537 7.97981 12.5541 8.00026C13.934 8.02071 15.0778 9.11982 15.0737 10.5346C15.0697 11.9716 13.9674 13.0747 12.5195 13.0767C11.0832 13.0787 9.98464 11.9203 10.0002 10.5219Z" fill="white"/>
</svg>
