<svg width="40" height="41" viewBox="0 0 40 41" fill="none" xmlns="http://www.w3.org/2000/svg">
<circle cx="20" cy="20.3711" r="20" fill="white"/>
<path d="M21.5969 17.2569C21.779 17.0112 21.9305 16.7923 22.0964 16.5852C22.4236 16.1765 22.8323 15.8623 23.2862 15.6077C24.0028 15.2056 24.7736 15.0097 25.5964 14.9902C26.4375 14.97 27.2595 15.0538 28.0565 15.3372C28.9476 15.6541 29.6308 16.22 30.1121 17.0323C30.4975 17.6823 30.7043 18.3952 30.8201 19.1337C30.8915 19.5896 30.958 20.0519 30.9629 20.5119C30.9868 22.6925 30.9897 24.8734 30.9983 27.0541C31.0012 27.7445 30.9986 28.4352 30.9986 29.1256V29.3168H30.8045C29.481 29.3168 28.1576 29.3174 26.8341 29.3162C26.6034 29.3162 26.6068 29.356 26.6068 29.0944C26.6065 26.6776 26.6083 24.2611 26.6042 21.8443C26.6031 21.202 26.5432 20.5649 26.2845 19.9669C25.9887 19.2829 25.4556 18.9203 24.7177 18.8379C24.2839 18.7895 23.8602 18.8241 23.444 18.9453C22.7303 19.1533 22.2896 19.6429 22.0451 20.3275C21.8801 20.7895 21.7913 21.2679 21.7888 21.757C21.7758 24.2015 21.7695 26.6459 21.7605 29.0904C21.7597 29.3468 21.7862 29.3162 21.5416 29.3165C20.223 29.3174 18.9045 29.3151 17.5856 29.32C17.4468 29.3205 17.3955 29.2935 17.3955 29.1402C17.3998 24.5946 17.399 20.0487 17.399 15.5031C17.399 15.3214 17.405 15.315 17.5839 15.315C18.8546 15.3148 20.1251 15.3148 21.3959 15.315C21.5851 15.315 21.5874 15.3182 21.5877 15.5092C21.5877 16.0319 21.5877 16.5544 21.588 17.0772C21.588 17.1276 21.5923 17.1777 21.5958 17.2572L21.5969 17.2569Z" fill="#6347D9"/>
<path d="M10.3457 29.3165C10.3457 29.2433 10.3457 29.1872 10.3457 29.1313C10.3457 24.5903 10.3457 20.0493 10.3457 15.5083C10.3457 15.315 10.3457 15.3145 10.5442 15.3145C11.8627 15.3145 13.1816 15.3145 14.5002 15.3145C14.7078 15.3145 14.7084 15.315 14.7084 15.5227C14.7084 20.0542 14.7084 24.5857 14.7084 29.1172C14.7084 29.3165 14.7078 29.3168 14.516 29.3168C13.1876 29.3168 11.8596 29.3168 10.5312 29.3168H10.3457V29.3165Z" fill="#6347D9"/>
<path d="M10.0002 10.893C9.98291 9.52403 11.1537 8.35091 12.5541 8.37136C13.934 8.39181 15.0778 9.49091 15.0737 10.9057C15.0697 12.3426 13.9674 13.4458 12.5195 13.4478C11.0832 13.4498 9.98464 12.2914 10.0002 10.893Z" fill="#6347D9"/>
</svg>
