<svg width="331" height="387" viewBox="0 0 331 387" fill="none" xmlns="http://www.w3.org/2000/svg">
<path d="M344.136 125.806C366.071 170.78 374.728 216.906 371.04 255.1C367.349 293.313 351.331 323.413 324.098 336.695C296.865 349.978 263.284 344.069 230.9 323.451C198.532 302.843 167.514 267.623 145.578 222.648C123.643 177.674 114.985 131.548 118.674 93.3542C122.365 55.141 138.383 25.0411 165.616 11.7586C192.849 -1.52391 226.429 4.38545 258.814 25.0034C291.182 45.6108 322.2 80.8313 344.136 125.806Z" fill="url(#paint0_linear_119_230)" stroke="url(#paint1_linear_119_230)" stroke-width="2"/>
<g filter="url(#filter0_b_119_230)">
<rect y="68" width="240" height="66" rx="16" fill="#18006F" fill-opacity="0.1"/>
<rect x="1.5" y="69.5" width="237" height="63" rx="14.5" stroke="#6347D9" stroke-width="3"/>
</g>
<path d="M37.9193 106.919C37.9193 108.843 37.2264 110.373 35.8406 111.511C34.4548 112.628 32.6037 113.186 30.2872 113.186C28.6325 113.186 27.2157 112.959 26.0368 112.504C24.8578 112.049 23.7616 111.304 22.7482 110.27L24.3304 108.688C25.2198 109.577 26.1195 110.197 27.0296 110.549C27.9603 110.901 29.0669 111.076 30.3492 111.076C31.9832 111.076 33.2656 110.725 34.1963 110.022C35.127 109.298 35.5924 108.284 35.5924 106.981C35.5924 105.782 35.2305 104.861 34.5066 104.22C33.9481 103.703 32.9863 103.341 31.6212 103.134L29.0462 102.762C27.3088 102.493 25.9644 101.934 25.013 101.086C23.8754 100.073 23.3066 98.6872 23.3066 96.9292C23.3066 95.047 23.9374 93.5475 25.1991 92.4306C26.4815 91.293 28.2085 90.7242 30.3803 90.7242C31.766 90.7242 32.9657 90.9207 33.9791 91.3137C35.0133 91.686 36.0061 92.2961 36.9575 93.1441L35.4373 94.6644C34.0929 93.382 32.3762 92.7408 30.2872 92.7408C28.8187 92.7408 27.6708 93.1131 26.8434 93.8577C26.0161 94.6023 25.6024 95.6054 25.6024 96.8671C25.6024 98.0047 25.9334 98.863 26.5952 99.4422C27.2364 100.001 28.1982 100.383 29.4805 100.59L32.0556 100.993C33.0898 101.159 33.8861 101.355 34.4445 101.583C35.0236 101.79 35.5614 102.121 36.0578 102.576C37.2988 103.651 37.9193 105.099 37.9193 106.919ZM57.4615 101.955C57.4615 104.416 57.3684 106.195 57.1823 107.291C57.0168 108.388 56.6031 109.37 55.9413 110.239L58.3612 112.659L56.9341 114.086L54.4831 111.666C53.2008 112.679 51.6185 113.186 49.7363 113.186C47.5025 113.186 45.6617 112.462 44.2139 111.014C43.2418 110.042 42.6316 108.977 42.3835 107.819C42.1353 106.661 42.0112 104.706 42.0112 101.955C42.0112 99.2043 42.1353 97.2498 42.3835 96.0915C42.6316 94.9332 43.2418 93.8681 44.2139 92.8959C45.6617 91.4481 47.5025 90.7242 49.7363 90.7242C51.9494 90.7242 53.7799 91.4481 55.2277 92.8959C56.2205 93.8887 56.841 94.9643 57.0892 96.1225C57.3374 97.2808 57.4615 99.225 57.4615 101.955ZM55.1036 101.955C55.1036 99.5559 55.0105 97.8703 54.8244 96.8981C54.6382 95.9053 54.2142 95.0677 53.5524 94.3851C52.5596 93.351 51.2876 92.8339 49.7363 92.8339C48.1851 92.8339 46.9131 93.351 45.9203 94.3851C45.2584 95.0677 44.8344 95.9053 44.6483 96.8981C44.4621 97.8703 44.369 99.5559 44.369 101.955C44.369 104.354 44.4621 106.05 44.6483 107.043C44.8344 108.015 45.2584 108.843 45.9203 109.525C46.9131 110.559 48.1851 111.076 49.7363 111.076C50.9773 111.076 52.0218 110.725 52.8698 110.022L50.0776 107.229L51.5047 105.802L54.1729 108.501C54.5658 107.881 54.814 107.116 54.9175 106.206C55.0416 105.296 55.1036 103.879 55.1036 101.955ZM76.6476 113H62.9967V90.9104H65.3546V110.89H76.6476V113Z" fill="white"/>
<path fill-rule="evenodd" clip-rule="evenodd" d="M261.918 40.8349C262.758 40.374 263.762 40.2278 264.718 40.427C265.673 40.6263 266.507 41.1555 267.045 41.9036L270.798 47.1257C271.288 47.8078 271.497 48.6258 271.39 49.4351C271.282 50.2444 270.865 50.993 270.211 51.5489L270.199 51.5627L270.146 51.6077L269.93 51.7909L269.077 52.5345C264.356 56.7108 259.779 61.0196 255.351 65.4548C247.021 73.8102 237.128 84.7454 230.47 95.3556C228.612 98.3159 224.074 98.9522 221.382 96.3965L196.793 73.0943C196.44 72.7602 196.165 72.3649 195.984 71.932C195.802 71.499 195.718 71.0371 195.736 70.5738C195.754 70.1105 195.874 69.6553 196.089 69.2352C196.303 68.815 196.609 68.4385 196.986 68.1281L204.418 62.0138C205.071 61.4767 205.908 61.1634 206.787 61.1275C207.665 61.0915 208.53 61.3351 209.233 61.8167L221.78 70.3968C241.379 52.7697 252.492 46.0052 261.918 40.8349ZM262.715 48.4986C254.032 53.4509 243.195 60.6339 224.805 77.4034C224.16 77.992 223.304 78.3485 222.393 78.4076C221.483 78.4667 220.58 78.2243 219.85 77.725L207.178 69.0584L204.975 70.8706L225.135 89.9813C232.135 79.3642 241.769 68.7956 249.743 60.7999C253.942 56.5927 258.273 52.4963 262.73 48.5159L262.715 48.4986Z" fill="#AB97FF"/>
<g filter="url(#filter1_b_119_230)">
<rect y="164" width="240" height="66" rx="16" fill="#18006F" fill-opacity="0.4"/>
<rect x="1.5" y="165.5" width="237" height="63" rx="14.5" stroke="#6347D9" stroke-width="3"/>
</g>
<path d="M36.8567 209H23.2058V186.91H25.5637V206.89H36.8567V209ZM52.2525 201.368C52.2525 204.16 51.632 206.187 50.391 207.449C49.2741 208.607 47.816 209.186 46.0165 209.186C44.2171 209.186 42.7589 208.607 41.642 207.449C40.401 206.187 39.7805 204.16 39.7805 201.368C39.7805 198.555 40.401 196.528 41.642 195.287C42.7589 194.129 44.2171 193.55 46.0165 193.55C47.816 193.55 49.2741 194.129 50.391 195.287C51.632 196.528 52.2525 198.555 52.2525 201.368ZM50.0187 201.368C50.0187 199.031 49.6154 197.459 48.8087 196.652C48.0642 195.908 47.1334 195.535 46.0165 195.535C44.9203 195.535 43.9999 195.908 43.2553 196.652C42.428 197.479 42.0143 199.051 42.0143 201.368C42.0143 203.684 42.428 205.256 43.2553 206.084C43.9999 206.828 44.9203 207.201 46.0165 207.201C47.1334 207.201 48.0642 206.828 48.8087 206.084C49.6154 205.256 50.0187 203.684 50.0187 201.368ZM68.3008 209.465C68.3008 211.389 67.732 212.961 66.5944 214.181C65.4569 215.401 63.9056 216.012 61.9407 216.012C60.8238 216.012 59.8827 215.856 59.1175 215.546C58.3729 215.236 57.5869 214.709 56.7596 213.964L58.2177 212.537C58.8382 213.095 59.3967 213.488 59.8931 213.716C60.3895 213.943 61.0513 214.057 61.8787 214.057C63.2851 214.057 64.3296 213.623 65.0122 212.754C65.7154 211.885 66.067 210.758 66.067 209.372V206.983C65.0328 208.307 63.6057 208.969 61.7856 208.969C60.2343 208.969 59.0037 208.514 58.0936 207.604C56.8526 206.363 56.2322 204.243 56.2322 201.244C56.2322 198.245 56.8526 196.125 58.0936 194.884C58.983 193.994 60.224 193.55 61.8166 193.55C63.6574 193.55 65.0846 194.212 66.098 195.535V193.736H68.3008V209.465ZM65.9119 203.353C66.0153 202.754 66.067 202.05 66.067 201.244C66.067 200.437 66.0153 199.734 65.9119 199.134C65.8291 198.534 65.6637 197.945 65.4155 197.366C65.1673 196.766 64.7743 196.311 64.2365 196.001C63.7195 195.69 63.0679 195.535 62.282 195.535C61.496 195.535 60.8342 195.69 60.2964 196.001C59.7586 196.311 59.3657 196.766 59.1175 197.366C58.8693 197.945 58.6935 198.534 58.59 199.134C58.5073 199.734 58.4659 200.437 58.4659 201.244C58.4659 202.05 58.5073 202.754 58.59 203.353C58.6935 203.953 58.8693 204.553 59.1175 205.153C59.3657 205.732 59.7586 206.177 60.2964 206.487C60.8342 206.797 61.496 206.952 62.282 206.952C63.0679 206.952 63.7195 206.797 64.2365 206.487C64.7743 206.177 65.1673 205.732 65.4155 205.153C65.6637 204.553 65.8291 203.953 65.9119 203.353ZM95.3231 202.919C95.3231 204.843 94.6302 206.373 93.2445 207.511C91.8587 208.628 90.0075 209.186 87.691 209.186C86.0364 209.186 84.6196 208.959 83.4406 208.504C82.2617 208.049 81.1655 207.304 80.152 206.27L81.7343 204.688C82.6236 205.577 83.5234 206.197 84.4334 206.549C85.3642 206.901 86.4707 207.076 87.7531 207.076C89.387 207.076 90.6694 206.725 91.6002 206.022C92.5309 205.298 92.9963 204.284 92.9963 202.981C92.9963 201.782 92.6343 200.861 91.9104 200.22C91.352 199.703 90.3902 199.341 89.0251 199.134L86.45 198.762C84.7127 198.493 83.3682 197.934 82.4168 197.086C81.2792 196.073 80.7105 194.687 80.7105 192.929C80.7105 191.047 81.3413 189.547 82.603 188.431C83.8853 187.293 85.6124 186.724 87.7841 186.724C89.1699 186.724 90.3695 186.921 91.383 187.314C92.4171 187.686 93.4099 188.296 94.3614 189.144L92.8411 190.664C91.4967 189.382 89.78 188.741 87.691 188.741C86.2225 188.741 85.0746 189.113 84.2473 189.858C83.42 190.602 83.0063 191.605 83.0063 192.867C83.0063 194.005 83.3372 194.863 83.9991 195.442C84.6403 196.001 85.602 196.383 86.8844 196.59L89.4594 196.993C90.4936 197.159 91.2899 197.355 91.8483 197.583C92.4275 197.79 92.9652 198.121 93.4616 198.576C94.7026 199.651 95.3231 201.099 95.3231 202.919ZM114.865 197.955C114.865 200.416 114.772 202.195 114.586 203.291C114.421 204.388 114.007 205.37 113.345 206.239L115.765 208.659L114.338 210.086L111.887 207.666C110.605 208.679 109.022 209.186 107.14 209.186C104.906 209.186 103.066 208.462 101.618 207.014C100.646 206.042 100.035 204.977 99.7873 203.819C99.5391 202.661 99.415 200.706 99.415 197.955C99.415 195.204 99.5391 193.25 99.7873 192.091C100.035 190.933 100.646 189.868 101.618 188.896C103.066 187.448 104.906 186.724 107.14 186.724C109.353 186.724 111.184 187.448 112.632 188.896C113.624 189.889 114.245 190.964 114.493 192.123C114.741 193.281 114.865 195.225 114.865 197.955ZM112.507 197.955C112.507 195.556 112.414 193.87 112.228 192.898C112.042 191.905 111.618 191.068 110.956 190.385C109.963 189.351 108.691 188.834 107.14 188.834C105.589 188.834 104.317 189.351 103.324 190.385C102.662 191.068 102.238 191.905 102.052 192.898C101.866 193.87 101.773 195.556 101.773 197.955C101.773 200.354 101.866 202.05 102.052 203.043C102.238 204.015 102.662 204.843 103.324 205.525C104.317 206.559 105.589 207.076 107.14 207.076C108.381 207.076 109.426 206.725 110.274 206.022L107.481 203.229L108.909 201.802L111.577 204.501C111.97 203.881 112.218 203.116 112.321 202.206C112.445 201.296 112.507 199.879 112.507 197.955ZM134.051 209H120.401V186.91H122.758V206.89H134.051V209Z" fill="white"/>
<path fill-rule="evenodd" clip-rule="evenodd" d="M262.185 135.495C263.025 135.034 264.028 134.888 264.984 135.087C265.94 135.286 266.774 135.815 267.311 136.563L271.065 141.786C271.554 142.468 271.764 143.286 271.656 144.095C271.549 144.904 271.131 145.653 270.477 146.209L270.466 146.223L270.413 146.268L270.197 146.451L269.344 147.194C264.623 151.371 260.045 155.68 255.618 160.115C247.287 168.47 237.395 179.405 230.737 190.015C228.879 192.976 224.34 193.612 221.648 191.056L197.059 167.754C196.707 167.42 196.432 167.025 196.25 166.592C196.069 166.159 195.984 165.697 196.002 165.234C196.02 164.77 196.14 164.315 196.355 163.895C196.57 163.475 196.875 163.098 197.253 162.788L204.684 156.674C205.337 156.137 206.175 155.823 207.053 155.787C207.932 155.751 208.797 155.995 209.5 156.477L222.046 165.057C241.645 147.43 252.759 140.665 262.185 135.495ZM262.981 143.159C254.298 148.111 243.462 155.294 225.072 172.063C224.427 172.652 223.57 173.008 222.66 173.068C221.75 173.127 220.847 172.884 220.116 172.385L207.445 163.718L205.242 165.53L225.402 184.641C232.401 174.024 242.036 163.455 250.01 155.46C254.209 151.253 258.539 147.156 262.996 143.176L262.981 143.159Z" fill="#AB97FF"/>
<g filter="url(#filter2_b_119_230)">
<rect y="260" width="240" height="66" rx="16" fill="#18006F" fill-opacity="0.4"/>
<rect x="1.5" y="261.5" width="237" height="63" rx="14.5" stroke="#6347D9" stroke-width="3"/>
</g>
<path d="M36.6861 298.919C36.6861 300.843 35.9932 302.373 34.6074 303.511C33.2216 304.628 31.3705 305.186 29.054 305.186C27.3993 305.186 25.9825 304.959 24.8036 304.504C23.6246 304.049 22.5284 303.304 21.515 302.27L23.0972 300.688C23.9866 301.577 24.8863 302.197 25.7964 302.549C26.7271 302.901 27.8337 303.076 29.116 303.076C30.75 303.076 32.0324 302.725 32.9631 302.022C33.8938 301.298 34.3592 300.284 34.3592 298.981C34.3592 297.782 33.9973 296.861 33.2733 296.22C32.7149 295.703 31.7531 295.341 30.388 295.134L27.813 294.762C26.0756 294.493 24.7312 293.934 23.7798 293.086C22.6422 292.073 22.0734 290.687 22.0734 288.929C22.0734 287.047 22.7042 285.547 23.9659 284.431C25.2483 283.293 26.9753 282.724 29.1471 282.724C30.5328 282.724 31.7325 282.921 32.7459 283.314C33.7801 283.686 34.7729 284.296 35.7243 285.144L34.2041 286.664C32.8597 285.382 31.143 284.741 29.054 284.741C27.5855 284.741 26.4376 285.113 25.6102 285.858C24.7829 286.602 24.3692 287.605 24.3692 288.867C24.3692 290.005 24.7002 290.863 25.362 291.442C26.0032 292.001 26.965 292.383 28.2473 292.59L30.8224 292.993C31.8565 293.159 32.6529 293.355 33.2113 293.583C33.7904 293.79 34.3282 294.121 34.8246 294.576C36.0656 295.651 36.6861 297.099 36.6861 298.919ZM53.343 297.368C53.343 300.429 52.7225 302.59 51.4815 303.852C50.5921 304.741 49.3511 305.186 47.7585 305.186C45.9384 305.186 44.5009 304.524 43.4461 303.201V311.825H41.2123V289.736H43.4461V291.535C44.5009 290.212 45.9384 289.55 47.7585 289.55C49.3511 289.55 50.5921 289.994 51.4815 290.884C52.7225 292.125 53.343 294.286 53.343 297.368ZM50.9541 299.571C51.0575 298.95 51.1092 298.216 51.1092 297.368C51.1092 296.52 51.0575 295.786 50.9541 295.165C50.8713 294.545 50.7059 293.945 50.4577 293.366C50.2095 292.766 49.8165 292.311 49.2787 292.001C48.741 291.69 48.0791 291.535 47.2932 291.535C46.652 291.535 46.0935 291.649 45.6178 291.877C45.1421 292.083 44.7595 292.363 44.4699 292.714C44.201 293.066 43.9838 293.51 43.8184 294.048C43.6736 294.586 43.5702 295.113 43.5081 295.631C43.4668 296.127 43.4461 296.706 43.4461 297.368C43.4461 298.03 43.4668 298.619 43.5081 299.136C43.5702 299.633 43.6736 300.15 43.8184 300.688C43.9838 301.225 44.201 301.67 44.4699 302.022C44.7595 302.373 45.1421 302.663 45.6178 302.89C46.0935 303.097 46.652 303.201 47.2932 303.201C48.0791 303.201 48.741 303.045 49.2787 302.735C49.8165 302.425 50.2095 301.98 50.4577 301.401C50.7059 300.801 50.8713 300.191 50.9541 299.571ZM63.5477 305H61.9344C60.6521 305 59.68 304.628 59.0181 303.883C58.3769 303.139 58.0563 302.156 58.0563 300.936V282.91H60.2901V300.843C60.2901 301.608 60.4452 302.177 60.7555 302.549C61.0657 302.901 61.5931 303.076 62.3377 303.076H63.5477V305ZM79.0894 305H76.8867V303.294C75.7905 304.555 74.353 305.186 72.5742 305.186C70.8989 305.186 69.5855 304.71 68.6341 303.759C67.5999 302.746 67.0828 301.318 67.0828 299.478V289.736H69.3166V299.136C69.3166 300.46 69.6372 301.474 70.2784 302.177C70.9403 302.859 71.8607 303.201 73.0396 303.201C74.2185 303.201 75.1493 302.849 75.8318 302.146C76.5144 301.442 76.8556 300.439 76.8556 299.136V289.736H79.0894V305ZM96.6657 305H94.4319V295.599C94.4319 294.276 94.101 293.273 93.4391 292.59C92.7772 291.887 91.8568 291.535 90.6779 291.535C89.499 291.535 88.5682 291.887 87.8857 292.59C87.2238 293.293 86.8929 294.296 86.8929 295.599V305H84.6591V289.736H86.8929V291.411C87.9684 290.17 89.3955 289.55 91.1743 289.55C92.829 289.55 94.132 290.025 95.0834 290.977C96.1383 292.011 96.6657 293.428 96.6657 295.227V305ZM114.893 305H112.132L107.292 297.182L104.314 300.594V305H102.08V282.91H104.314V297.678L111.202 289.736H113.994L108.813 295.568L114.893 305ZM140.152 298.919C140.152 300.843 139.46 302.373 138.074 303.511C136.688 304.628 134.837 305.186 132.52 305.186C130.866 305.186 129.449 304.959 128.27 304.504C127.091 304.049 125.995 303.304 124.981 302.27L126.564 300.688C127.453 301.577 128.353 302.197 129.263 302.549C130.194 302.901 131.3 303.076 132.582 303.076C134.216 303.076 135.499 302.725 136.43 302.022C137.36 301.298 137.826 300.284 137.826 298.981C137.826 297.782 137.464 296.861 136.74 296.22C136.181 295.703 135.22 295.341 133.854 295.134L131.279 294.762C129.542 294.493 128.198 293.934 127.246 293.086C126.109 292.073 125.54 290.687 125.54 288.929C125.54 287.047 126.171 285.547 127.432 284.431C128.715 283.293 130.442 282.724 132.613 282.724C133.999 282.724 135.199 282.921 136.212 283.314C137.246 283.686 138.239 284.296 139.191 285.144L137.67 286.664C136.326 285.382 134.609 284.741 132.52 284.741C131.052 284.741 129.904 285.113 129.077 285.858C128.249 286.602 127.836 287.605 127.836 288.867C127.836 290.005 128.167 290.863 128.828 291.442C129.47 292.001 130.431 292.383 131.714 292.59L134.289 292.993C135.323 293.159 136.119 293.355 136.678 293.583C137.257 293.79 137.795 294.121 138.291 294.576C139.532 295.651 140.152 297.099 140.152 298.919ZM159.695 293.955C159.695 296.416 159.602 298.195 159.415 299.291C159.25 300.388 158.836 301.37 158.174 302.239L160.594 304.659L159.167 306.086L156.716 303.666C155.434 304.679 153.852 305.186 151.97 305.186C149.736 305.186 147.895 304.462 146.447 303.014C145.475 302.042 144.865 300.977 144.617 299.819C144.368 298.661 144.244 296.706 144.244 293.955C144.244 291.204 144.368 289.25 144.617 288.091C144.865 286.933 145.475 285.868 146.447 284.896C147.895 283.448 149.736 282.724 151.97 282.724C154.183 282.724 156.013 283.448 157.461 284.896C158.454 285.889 159.074 286.964 159.322 288.123C159.571 289.281 159.695 291.225 159.695 293.955ZM157.337 293.955C157.337 291.556 157.244 289.87 157.058 288.898C156.871 287.905 156.447 287.068 155.786 286.385C154.793 285.351 153.521 284.834 151.97 284.834C150.418 284.834 149.146 285.351 148.153 286.385C147.492 287.068 147.068 287.905 146.881 288.898C146.695 289.87 146.602 291.556 146.602 293.955C146.602 296.354 146.695 298.05 146.881 299.043C147.068 300.015 147.492 300.843 148.153 301.525C149.146 302.559 150.418 303.076 151.97 303.076C153.211 303.076 154.255 302.725 155.103 302.022L152.311 299.229L153.738 297.802L156.406 300.501C156.799 299.881 157.047 299.116 157.151 298.206C157.275 297.296 157.337 295.879 157.337 293.955ZM178.881 305H165.23V282.91H167.588V302.89H178.881V305Z" fill="white"/>
<path fill-rule="evenodd" clip-rule="evenodd" d="M262.185 232.495C263.025 232.034 264.028 231.888 264.984 232.087C265.94 232.286 266.774 232.815 267.311 233.563L271.065 238.786C271.554 239.468 271.764 240.286 271.656 241.095C271.549 241.904 271.131 242.653 270.477 243.209L270.466 243.223L270.413 243.268L270.197 243.451L269.344 244.194C264.623 248.371 260.045 252.68 255.618 257.115C247.287 265.47 237.395 276.405 230.737 287.015C228.879 289.976 224.34 290.612 221.648 288.056L197.059 264.754C196.707 264.42 196.432 264.025 196.25 263.592C196.069 263.159 195.984 262.697 196.002 262.234C196.02 261.77 196.14 261.315 196.355 260.895C196.57 260.475 196.875 260.098 197.253 259.788L204.684 253.674C205.337 253.137 206.175 252.823 207.053 252.787C207.932 252.751 208.797 252.995 209.5 253.477L222.046 262.057C241.645 244.43 252.759 237.665 262.185 232.495ZM262.981 240.159C254.298 245.111 243.462 252.294 225.072 269.063C224.427 269.652 223.57 270.008 222.66 270.068C221.75 270.127 220.847 269.884 220.116 269.385L207.445 260.718L205.242 262.53L225.402 281.641C232.401 271.024 242.036 260.455 250.01 252.46C254.209 248.253 258.539 244.156 262.996 240.176L262.981 240.159Z" fill="#AB97FF"/>
<defs>
<filter id="filter0_b_119_230" x="-20.4" y="47.6" width="280.8" height="106.8" filterUnits="userSpaceOnUse" color-interpolation-filters="sRGB">
<feFlood flood-opacity="0" result="BackgroundImageFix"/>
<feGaussianBlur in="BackgroundImageFix" stdDeviation="10.2"/>
<feComposite in2="SourceAlpha" operator="in" result="effect1_backgroundBlur_119_230"/>
<feBlend mode="normal" in="SourceGraphic" in2="effect1_backgroundBlur_119_230" result="shape"/>
</filter>
<filter id="filter1_b_119_230" x="-20.4" y="143.6" width="280.8" height="106.8" filterUnits="userSpaceOnUse" color-interpolation-filters="sRGB">
<feFlood flood-opacity="0" result="BackgroundImageFix"/>
<feGaussianBlur in="BackgroundImageFix" stdDeviation="10.2"/>
<feComposite in2="SourceAlpha" operator="in" result="effect1_backgroundBlur_119_230"/>
<feBlend mode="normal" in="SourceGraphic" in2="effect1_backgroundBlur_119_230" result="shape"/>
</filter>
<filter id="filter2_b_119_230" x="-20.4" y="239.6" width="280.8" height="106.8" filterUnits="userSpaceOnUse" color-interpolation-filters="sRGB">
<feFlood flood-opacity="0" result="BackgroundImageFix"/>
<feGaussianBlur in="BackgroundImageFix" stdDeviation="10.2"/>
<feComposite in2="SourceAlpha" operator="in" result="effect1_backgroundBlur_119_230"/>
<feBlend mode="normal" in="SourceGraphic" in2="effect1_backgroundBlur_119_230" result="shape"/>
</filter>
<linearGradient id="paint0_linear_119_230" x1="105.5" y1="216" x2="311.5" y2="156" gradientUnits="userSpaceOnUse">
<stop stop-color="#6347D9" stop-opacity="0.65"/>
<stop offset="0.54" stop-color="#6347D9" stop-opacity="0"/>
</linearGradient>
<linearGradient id="paint1_linear_119_230" x1="146.5" y1="224" x2="193" y2="185" gradientUnits="userSpaceOnUse">
<stop stop-color="#8279A5"/>
<stop offset="1" stop-color="#8279A5" stop-opacity="0"/>
</linearGradient>
</defs>
</svg>
